<?xml version="1.0" encoding="UTF-8" standalone="no"?>
<!-- Generator: Adobe Illustrator 28.1.0, SVG Export Plug-In . SVG Version: 6.00 Build 0)  -->

<svg
   version="1.1"
   id="Ebene_1"
   x="0px"
   y="0px"
   viewBox="0 0 424.59565 174.42756"
   xml:space="preserve"
   sodipodi:docname="718-model.svg"
   width="424.59567"
   height="174.42757"
   inkscape:version="1.3 (0e150ed, 2023-07-21)"
   xmlns:inkscape="http://www.inkscape.org/namespaces/inkscape"
   xmlns:sodipodi="http://sodipodi.sourceforge.net/DTD/sodipodi-0.dtd"
   xmlns="http://www.w3.org/2000/svg"
   xmlns:svg="http://www.w3.org/2000/svg"><defs
   id="defs218" /><sodipodi:namedview
   id="namedview218"
   pagecolor="#ffffff"
   bordercolor="#000000"
   borderopacity="0.25"
   inkscape:showpageshadow="2"
   inkscape:pageopacity="0.0"
   inkscape:pagecheckerboard="0"
   inkscape:deskcolor="#d1d1d1"
   inkscape:zoom="0.80507853"
   inkscape:cx="268.29681"
   inkscape:cy="40.98979"
   inkscape:window-width="1312"
   inkscape:window-height="721"
   inkscape:window-x="0"
   inkscape:window-y="25"
   inkscape:window-maximized="0"
   inkscape:current-layer="Ebene_1"><inkscape:page
     x="0"
     y="0"
     width="424.59564"
     height="174.42757"
     id="page218"
     margin="0 0 0 0"
     bleed="0" /></sodipodi:namedview>&#10;<style
   type="text/css"
   id="style1">&#10;	.st0{fill:none;stroke:#000000;stroke-width:0.8504;stroke-linecap:round;stroke-linejoin:round;stroke-miterlimit:10;}&#10;	.st1{fill:none;stroke:#000000;stroke-width:0.4252;stroke-linecap:round;stroke-linejoin:round;stroke-miterlimit:10;}&#10;	.st2{fill:none;stroke:#000000;stroke-width:0.2835;stroke-linecap:round;stroke-linejoin:round;stroke-miterlimit:10;}&#10;	.st3{fill:none;stroke:#000000;stroke-width:0.5669;stroke-linecap:round;stroke-linejoin:round;stroke-miterlimit:10;}&#10;	.st4{fill:none;stroke:#000000;stroke-width:0.5669;stroke-linecap:round;stroke-linejoin:round;}&#10;	.st5{fill:none;stroke:#000000;stroke-width:0.0992;stroke-linecap:round;stroke-linejoin:round;stroke-miterlimit:10;}&#10;	.st6{fill:none;stroke:#000000;stroke-width:0.1984;stroke-linecap:round;stroke-linejoin:round;stroke-miterlimit:10;}&#10;</style>&#10;<g
   id="g218"
   transform="matrix(1.3800602,0,0,1.3128199,3.0371914,-2.7578586)">&#10;	<path
   class="st0"
   d="m 298.63,38.79 c -1.01,-5.37 -3.48,-8.15 -4.96,-9.38 -0.36,-0.29 -0.65,-0.5 -0.86,-0.63 -0.2,-0.12 -0.31,-0.18 -0.31,-0.18 0,0 -2.29,-2.57 -4.88,-5.28 -2.59,-2.71 -6.73,-5.43 -9.32,-6.81 -1.57,-0.84 -5.95,-2.52 -9.15,-3.71 -2.08,-0.78 -3.66,-1.35 -3.66,-1.35 -1.53,-0.57 -2.71,-0.66 -5.46,-0.95 -2.61,-0.28 -9.82,-0.6 -14.61,-0.63 h -0.01 c -0.25,0 -0.49,0 -0.73,0 -2.43,0 -10.01,0.02 -17.12,0.05 -6.81,0.03 -13.2,0.06 -14.19,0.08 -2.02,0.04 -3.55,0.35 -5.72,0.76 -2.18,0.43 -3.98,0.73 -6.57,0.85 -2.55,0.11 -26.21,-0.19 -36.86,-0.2 -0.22,0 -0.43,0 -0.63,0 -10.31,0 -38.22,-0.07 -38.22,-0.07 l -0.05,-0.03 c 1.56,-2.51 3.03,-5.02 3.19,-5.35 0.06,-0.13 0.09,-0.24 0.1,-0.33 0.02,-0.27 -0.15,-0.41 -0.26,-0.52 -0.14,-0.14 -0.44,-0.07 -0.44,-0.07 l -0.06,-0.21 c 0,0 -1,-0.36 -2.9,-0.36 -1.35,0 -2.51,0.24 -3.46,0.58 -0.09,0.03 -0.18,0.07 -0.27,0.11 -0.28,0.1 -0.54,0.22 -0.78,0.33 -1.24,0.61 -1.89,1.1 -1.89,1.1 -1.62,1.15 -3.4,3.28 -4.6,4.86 l -0.05,-0.04 -14.74,0.25 -0.65,0.19 -0.1,0.07 c -0.02,-0.03 -0.03,-0.06 -0.05,-0.08 l -0.06,-1 c 0,0 0.06,-0.63 -0.86,-0.63 -0.91,0 -0.91,0 -0.91,0 0,0 -0.55,0.06 -1.09,0.43 -0.55,0.37 -1.09,0.92 -1.92,0.86 -0.01,0 -0.02,0 -0.04,-0.01 v -0.01 c -0.37,-0.46 -1.71,-0.79 -3.69,-0.99 v -0.04 c -0.22,-0.03 -0.44,-0.05 -0.67,-0.07 -2.33,-0.21 -4.74,-0.24 -7.69,-0.24 -2.96,0 -15.66,-0.09 -19.82,-0.09 -3.53,0 -8.99,0 -10.56,0 0,0 -1.81,-0.02 -3.69,-0.03 -1.59,0 -3.24,0 -3.89,0.03 0,0 -5.48,-0.07 -6.46,1.1 0,0 -0.23,0.05 -0.63,0.14 -0.02,0.01 -0.03,0.01 -0.05,0.01 -1.54,0.37 -5.5,1.45 -9.36,3.52 -4.95,2.64 -7.66,6.48 -9.82,9.47 -2.16,2.98 -5.61,7.32 -7.97,14.65 0,0 -0.09,0.27 -0.25,0.78 C 8,42.7 4.84,53.97 4.84,68.45 v 0.12 c 0,14.48 3.16,25.75 4.09,28.74 0.16,0.51 0.25,0.78 0.25,0.78 2.36,7.32 5.81,11.66 7.97,14.64 2.16,2.99 4.87,6.83 9.82,9.48 3.86,2.06 7.82,3.14 9.36,3.51 0.02,0 0.03,0 0.05,0.01 0.4,0.1 0.63,0.15 0.63,0.15 0.98,1.16 6.46,1.09 6.46,1.09 0.65,0.03 2.3,0.03 3.89,0.03 1.88,-0.01 3.69,-0.03 3.69,-0.03 1.57,0 7.03,0 10.56,0 4.16,0 16.86,-0.09 19.82,-0.09 2.95,0 5.36,-0.02 7.69,-0.24 0.23,-0.02 0.45,-0.04 0.67,-0.07 v -0.04 c 1.98,-0.2 3.32,-0.53 3.69,-0.99 v -0.01 c 0.02,-0.01 0.03,-0.01 0.04,-0.01 0.83,-0.06 1.37,0.49 1.92,0.86 0.54,0.37 1.09,0.43 1.09,0.43 0,0 0,0 0.91,0 0.92,0 0.86,-0.63 0.86,-0.63 l 0.06,-1 c 0.02,-0.02 0.03,-0.05 0.05,-0.08 l 0.1,0.07 0.65,0.19 14.74,0.25 0.05,-0.04 c 1.2,1.58 2.98,3.71 4.6,4.86 0,0 0.65,0.49 1.89,1.1 0.25,0.12 0.51,0.24 0.8,0.34 0.08,0.04 0.16,0.07 0.25,0.1 0.95,0.34 2.11,0.59 3.46,0.59 1.9,0 2.9,-0.36 2.9,-0.36 l 0.06,-0.22 c 0,0 0.3,0.07 0.44,-0.07 0.11,-0.11 0.28,-0.25 0.26,-0.52 -0.01,-0.09 -0.04,-0.2 -0.1,-0.33 -0.16,-0.32 -1.63,-2.83 -3.19,-5.34 l 0.05,-0.03 c 0,0 27.91,-0.08 38.22,-0.08 0.2,0 0.41,0 0.63,0 10.65,-0.01 34.31,-0.31 36.86,-0.19 2.59,0.11 4.39,0.42 6.57,0.84 2.17,0.42 3.7,0.72 5.72,0.76 0.99,0.02 7.38,0.05 14.19,0.08 7.11,0.03 14.69,0.05 17.12,0.05 0.24,0 0.48,0 0.73,0 h 0.01 c 4.79,-0.03 12,-0.35 14.61,-0.63 2.75,-0.28 3.93,-0.38 5.46,-0.95 0,0 1.99,-0.72 4.44,-1.64 3.1,-1.16 6.92,-2.65 8.37,-3.42 2.59,-1.38 6.73,-4.09 9.32,-6.81 2.59,-2.71 4.88,-5.27 4.88,-5.27 0,0 0.11,-0.06 0.31,-0.18 0.2,-0.13 0.5,-0.33 0.85,-0.62 1.48,-1.23 3.95,-4.01 4.97,-9.4 1.49,-7.9 3.26,-14.94 3.26,-29.72 0,-14.78 -1.77,-21.82 -3.26,-29.72 z"
   id="path1" />&#10;	<g
   id="g74">&#10;		<g
   id="g73">&#10;			<path
   class="st1"
   d="m 16.48,68.42 c 0,0 0.54,-1.54 1.84,-1.54 1.3,0 1.42,0 1.42,0 0,0 0.42,0.05 0.42,1.56"
   id="path2" />&#10;			<path
   class="st2"
   d="m 122,68.51 c 0,0.43 -0.35,0.77 -0.77,0.77 -0.43,0 -0.77,-0.35 -0.77,-0.77 0,-0.43 0.34,-0.77 0.77,-0.77 0.42,0 0.77,0.34 0.77,0.77 z"
   id="path3" />&#10;			<path
   class="st2"
   d="m 280.55,68.51 0.01,3.6 c 0.04,0.64 0.16,1.32 0.3,1.65 0.06,0.16 0.13,0.3 0.2,0.45 0.23,0.5 0.39,0.89 0.46,1.32 0.14,0.89 0.11,1.96 -0.09,3.28 -0.02,0.16 -0.66,4.97 -1.23,7.29 -0.46,1.85 -1.4,5.11 -2.11,6.49 -1.13,2.2 -2.59,3.88 -4.32,4.21 -0.37,0.07 -2.99,0.38 -8.8,0.38"
   id="path4" />&#10;			<path
   class="st1"
   d="m 281.75,54.82 c 0.6,0.12 0.77,0.91 0.77,0.91 0.93,4.18 1.74,12.1 1.71,12.4 -0.08,0.65 -0.17,0.88 -0.17,0.88 0,0 -0.31,0.37 -0.45,0.5 -0.14,0.12 -0.16,0.2 -0.34,0.2 -0.19,0 -0.58,0.02 -0.88,-0.33 -0.3,-0.34 -0.36,-0.79 -0.36,-0.79 -0.37,-9.42 -1.04,-12.64 -1.04,-12.64 -0.08,-0.88 0.08,-1.02 0.08,-1.02 z"
   id="path5" />&#10;			<polyline
   class="st1"
   points="281.06,54.94 279.98,48.66 280.61,48.51 281.75,54.82    "
   id="polyline5" />&#10;			<path
   class="st2"
   d="m 282.6,69.25 c 0,0 0.31,-0.23 0.67,-0.53"
   id="path6" />&#10;			<path
   class="st3"
   d="M 4.84,68.36"
   id="path7" />&#10;			<path
   class="st3"
   d="m 98.36,125.17 -0.06,1 c 0,0 0.06,0.63 -0.86,0.63 -0.91,0 -0.91,0 -0.91,0 0,0 -0.54,-0.06 -1.09,-0.43 -0.55,-0.37 -1.09,-0.92 -1.92,-0.86 -0.83,0.06 -6.59,0.66 -7.9,0.51 0,0 -0.41,-0.1 0.05,-0.18 0,0 6.83,-0.48 7.77,-0.54 0.93,-0.04 3.3,-0.17 4.92,-0.13 z"
   id="path8" />&#10;			<path
   class="st3"
   d="m 93.55,125.33 c -0.08,-0.53 0.04,-1.08 -5.49,-0.75 -3.45,0.21 -5.67,1.11 -5.63,1.65 0.04,0.54 2.44,0.61 5.89,0.41 2.78,-0.16 4.71,-0.53 5.15,-1.1"
   id="path9" />&#10;			<path
   class="st2"
   d="M 104.22,117.32"
   id="path10" />&#10;			<path
   class="st3"
   d="m 98.36,125.17 c 0.72,-1.09 5.86,-7.86 5.86,-7.86 -4.73,-0.9 -8.27,-3.86 -8.27,-3.86 0,0 -14.83,-12.89 -14.83,-44.95"
   id="path11" />&#10;			<path
   class="st2"
   d="M 34.97,115.9"
   id="path12" />&#10;			<path
   class="st3"
   d="m 121.24,131.86 c 0,0 -1.95,-1.29 -2.93,-2.29 -2.45,-2.49 -4.78,-6 -4.78,-6 -0.93,-1.39 -0.2,-2.21 -0.2,-2.21 0.43,-0.7 2.19,-0.64 2.19,-0.64 4.18,0.04 6,0.29 6.42,0.34 0.41,0.06 1.2,1.22 1.2,1.22 2.02,2.99 5.14,8.29 5.38,8.77 0.25,0.48 -0.01,0.7 -0.16,0.84 -0.14,0.14 -0.45,0.07 -0.45,0.07 l -0.05,0.22 c 0,0 -1.01,0.36 -2.9,0.36 -1.36,0 -2.51,-0.25 -3.46,-0.59 -0.39,-0.13 -0.74,-0.29 -1.05,-0.44 -1.24,-0.61 -1.9,-1.1 -1.9,-1.1 -2.8,-1.98 -6.04,-6.87 -6.04,-6.87 0,0 -0.75,-1.03 -0.75,-1.77 0,-0.67 1.15,-1.18 1.15,-1.18 0,0 0.8,-0.49 2.98,-0.6 3.11,-0.16 3.83,0.82 3.83,0.82"
   id="path13" />&#10;			<path
   class="st2"
   d="m 121.93,121.07 c 0,0 -0.03,0.36 0.57,1.3 0.6,0.95 2.95,4.71 5.6,8.66 0,0 0.32,0.47 0.52,0.36"
   id="path14" />&#10;			<path
   class="st2"
   d="m 127.81,131.87 c 0,0 -3.99,-6 -5.84,-9.16"
   id="path15" />&#10;			<polyline
   class="st3"
   points="98.51,125.17 99.16,125.36 113.9,125.6    "
   id="polyline15" />&#10;			<path
   class="st3"
   d="m 292.67,108.08 c 0.92,-1.83 2.98,-8.42 4.01,-14.72 1.03,-6.3 2.53,-10.5 2.53,-24.85"
   id="path16" />&#10;			<path
   class="st3"
   d="M 278.85,120.26"
   id="path17" />&#10;			<path
   class="st3"
   d="m 125.37,125.68 c 0,0 27.91,-0.08 38.22,-0.08 10.31,0 34.89,-0.3 37.49,-0.19 2.59,0.11 4.39,0.42 6.57,0.84 2.18,0.42 3.7,0.72 5.73,0.76 2.02,0.04 26.55,0.13 31.3,0.13 4.75,0 12.6,-0.34 15.35,-0.63 2.75,-0.29 3.93,-0.38 5.46,-0.95 0,0 10.23,-3.68 12.82,-5.06 2.59,-1.38 6.72,-4.09 9.31,-6.81 2.59,-2.71 4.88,-5.28 4.88,-5.28 0,0 4.64,-2.29 6.13,-10.19 1.49,-7.9 3.26,-14.94 3.26,-29.72"
   id="path18" />&#10;			<path
   class="st3"
   d="m 245.37,127.17 c 0,0 3.17,-1.91 6.87,-3.05 3.7,-1.15 12.6,-3.78 17.14,-5.88 4.54,-2.1 9.28,-4.7 11.84,-7.44 2.56,-2.75 4.35,-4.89 5.65,-7.6 1.3,-2.71 7.06,-12.92 7.06,-34.68"
   id="path19" />&#10;			<path
   class="st3"
   d="m 164.22,125.6 c 0,0 0.34,-0.17 0.66,-0.69 0.32,-0.51 4.09,-7.13 4.09,-7.13 l -0.08,-1.14"
   id="path20" />&#10;			<path
   class="st2"
   d="m 106.98,117.6 c 2.77,0.23 7,0.56 9.64,0.64 4.2,0.12 36.12,0.46 52.04,-0.54"
   id="path21" />&#10;			<path
   class="st3"
   d="m 104.24,117.36 c 0,0 1.12,0.1 2.74,0.24"
   id="path22" />&#10;			<path
   class="st2"
   d="m 169.16,117.74 c 0,0 11.49,-0.66 21.93,-1.56 0,0 47.05,-5.3 47.05,-7.75 0,-2.26 -21.62,-2.94 -34.58,-2.82 -12.97,0.12 -45.84,1.97 -45.84,1.97 -4.15,0.23 -8.29,0.55 -11.36,1.01 -3.09,0.46 -5.79,1.09 -9.39,1.83 -3.61,0.74 -31.15,6.99 -31.15,6.99"
   id="path23" />&#10;			<path
   class="st2"
   d="M 174.39,107.78"
   id="path24" />&#10;			<path
   class="st3"
   d="m 110.79,116.73 c 0,0 21.23,-4.6 24.7,-5.36 3.48,-0.76 10.96,-2.18 14.82,-2.52 1.36,-0.12 4.23,-0.29 7.57,-0.46 0,0 30.64,-1.77 39.41,-2.02 8.77,-0.25 37.84,-0.12 37.84,1.82 0,2.01 -44.08,6.62 -44.08,6.62 -10.88,0.92 -22.2,1.58 -22.2,1.58 -1.52,0.08 -3.05,0.15 -4.58,0.22 -28.06,1.2 -28.07,1.1 -53.48,0.12 l -3.8,0.87"
   id="path25" />&#10;			<path
   class="st3"
   d="m 164.35,116.4 c 0,0 3.89,-3.09 7.56,-8.44 l 0.21,-0.34"
   id="path26" />&#10;			<path
   class="st3"
   d="m 174.13,115.83 c 0,0 2.93,-5.56 3.88,-8.46"
   id="path27" />&#10;			<path
   class="st2"
   d="m 165.15,116.33 c 0,0 4.39,-3.51 7.48,-8.32 l 0.3,-0.45"
   id="path28" />&#10;			<path
   class="st2"
   d="m 173.44,115.91 c 0,0 2.89,-5.5 3.85,-8.55"
   id="path29" />&#10;			<path
   class="st3"
   d="m 148.89,125.32 c 0,0 -0.88,0.02 -0.88,-0.15 0,-0.17 0.57,-0.26 1.07,-0.36 0.49,-0.1 3.57,-0.44 5.67,-0.44 2.1,0 5.32,-0.13 5.9,-0.11 0.57,0.02 1.05,0.09 1.05,0.32 0,0.23 -0.64,0.48 -1.42,0.52 -0.78,0.03 -10.67,0.26 -11.39,0.22 z"
   id="path30" />&#10;			<path
   class="st3"
   d="m 227.56,127.07 c 0,0 0.8,-1.49 1.12,-2.38 0.31,-0.89 0.57,-1.69 0.4,-3.18 0,0 0.03,-0.86 -1.32,-2.52 -1.34,-1.66 -4.67,-5.41 -5.67,-6.47 0,0 -0.49,-0.63 -0.52,-1.2"
   id="path31" />&#10;			<path
   class="st3"
   d="m 206.37,124.63 c 0,0 -1.44,0.06 -1.45,-0.17 -0.02,-0.23 1.36,-0.72 3.4,-0.72 2.04,0 7.23,0.02 9.16,0.11 0,0 1.09,0.02 1.05,0.38 0,0 0.02,0.48 -1.26,0.48 -1.13,0 -10.12,-0.1 -10.9,-0.08"
   id="path32" />&#10;			<path
   class="st2"
   d="m 227.05,114.08 c 0,0 27.72,-1.27 54.54,-7.63"
   id="path33" />&#10;			<path
   class="st3"
   d="m 102.2,116.21 c 0,0 16.38,-3.36 30.51,-7.33 0,0 4.85,-1.14 3.78,-4.2 -1.07,-3.05 -4.73,-14.72 -4.73,-36.17"
   id="path34" />&#10;			<path
   class="st2"
   d="m 90.21,68.49 c 0,23.21 11.76,41.08 11.76,41.08 0,0 2.12,3.89 9.68,2.23 7.56,-1.66 15.35,-3.55 18.27,-4.52 2.92,-0.97 4.3,-2.18 3.15,-6.81 -1.15,-4.64 -2.98,-14.09 -2.98,-21.99 0,0 0,-0.43 -0.6,-0.63 -0.6,-0.2 -4.38,-1.37 -5.01,-1.63 -0.63,-0.26 -1.46,-0.92 -1.52,-2 -0.06,-1.09 -0.2,-2.46 -0.2,-2.46 0,0 0.09,-0.49 -0.63,-0.71 -0.71,-0.23 -1.97,-0.52 -2.29,-0.66 -0.31,-0.14 -1,-0.51 -1,-1.86"
   id="path35" />&#10;			<path
   class="st2"
   d="m 112.48,111.6 c 0,0 -3.66,0.54 -5.64,0.03 -0.44,-0.12 -0.84,-0.22 -1.23,-0.35 -1.35,-0.43 -2.4,-1.06 -3.41,-2.89 -1.29,-2.35 -10.14,-19.84 -10.76,-34.56 0,0 -0.08,-0.57 -0.3,-0.99 -0.23,-0.42 -0.89,-1.55 -0.89,-2.54 -0.01,-1.05 -0.02,-1.81 -0.02,-1.81"
   id="path36" />&#10;			<line
   class="st2"
   x1="105.98"
   y1="111.17"
   x2="132.92999"
   y2="104.91"
   id="line36" />&#10;			<path
   class="st2"
   d="m 106.59,110.79 c 0,0 -11.44,-16.17 -11.44,-42.28"
   id="path37" />&#10;			<path
   class="st2"
   d="m 286.03,103.42 c 0,0 7.29,-12.69 7.29,-34.92"
   id="path38" />&#10;			<path
   class="st3"
   d="m 266.36,119.53 c 0,0 11.19,-0.11 16.01,-4.12 0,0 7.73,-5.5 10.42,-15.77 2.43,-9.26 4.68,-14.41 4.68,-31.13"
   id="path39" />&#10;			<path
   class="st2"
   d="m 287.29,102.38 c 0,0 2.81,-0.29 4.3,-0.86 l 0.8,-0.57"
   id="path40" />&#10;			<path
   class="st1"
   d="m 16.48,68.51 c 0,0 0.54,1.54 1.84,1.54 1.3,0 1.42,0 1.42,0 0,0 0.42,-0.05 0.42,-1.56"
   id="path41" />&#10;			<path
   class="st3"
   d="m 247.23,68.51 c 0,0 -0.25,24.02 -0.38,29.47 0,0 -0.19,2.79 0.44,3.57 0.62,0.78 2.32,1.53 6.45,1.94 4.14,0.41 11.78,0.66 14.04,0.53 2.25,-0.12 5.51,-0.44 8.02,-2.88 2.51,-2.44 6.16,-8.55 7.47,-16.2 1.32,-7.64 1.45,-10.61 1.45,-16.43"
   id="path42" />&#10;			<path
   class="st3"
   d="m 255.68,103.55 c 0,0 4.57,-2.13 6.77,-4.01 2.19,-1.88 3.45,-2.76 4.51,-6.77 1.06,-4.01 3.11,-10.54 3.11,-24.27"
   id="path43" />&#10;			<path
   class="st3"
   d="m 264.06,101.94 c -0.35,-0.18 -0.64,-0.47 -0.69,-0.96 -0.01,-0.07 -0.01,-0.15 -0.02,-0.22 -0.11,-1.17 -0.11,-1.85 -0.11,-1.85"
   id="path44" />&#10;			<path
   class="st2"
   d="m 274.33,102.17 -8.98,0.03 c 0,0 -0.72,0.03 -1.29,-0.26"
   id="path45" />&#10;			<path
   class="st3"
   d="m 263.36,100.76 c 0,0 0.47,0.41 1.48,0.42 1,0.02 11.08,-0.16 11.08,-0.16"
   id="path46" />&#10;			<path
   class="st2"
   d="m 260.62,103.75 c 0,0 2.5,-0.52 4.46,-1.11"
   id="path47" />&#10;			<path
   class="st2"
   d="m 257.11,103.58 c 0,0 3.84,-0.69 6.31,-1.39"
   id="path48" />&#10;			<path
   class="st2"
   d="m 260.01,102.03 c 0,0 1.64,-0.27 2.91,-0.66"
   id="path49" />&#10;			<path
   class="st2"
   d="m 136.48,104.68 c 0,0 52.1,-2.22 110.37,-6.71"
   id="path50" />&#10;			<path
   class="st2"
   d="m 272.92,103.07 c 0,0 1.61,0.88 3.3,1.23 0,0 1.23,0.23 2.9,0.1 1.67,-0.12 7.54,-0.9 7.54,-0.9"
   id="path51" />&#10;			<path
   class="st2"
   d="m 247.01,97.98 c 0,0 3.14,-0.26 7.1,-0.6 2.93,-0.25 8.38,-0.71 11.26,-0.99"
   id="path52" />&#10;			<path
   class="st2"
   d="M 254.26,97.35"
   id="path53" />&#10;			<path
   class="st2"
   d="M 256.95,97.13"
   id="path54" />&#10;			<path
   class="st2"
   d="m 255.51,96.8 c -0.52,0.53 -1.49,0.57 -1.49,0.57"
   id="path55" />&#10;			<path
   class="st2"
   d="M 257.09,97.11"
   id="path56" />&#10;			<path
   class="st2"
   d="m 257.24,97.08 c 0,0 -0.97,0.13 -1.72,-0.28 0,0 2.63,-7.96 2.63,-28.14"
   id="path57" />&#10;			<path
   class="st2"
   d="M 257.32,96.41"
   id="path58" />&#10;			<path
   class="st2"
   d="m 268.36,124.39 c 0,0 13.87,-4.18 20.05,-15.29"
   id="path59" />&#10;			<path
   class="st2"
   d="m 293.59,107.75 c 0,0 7.1,-12.31 7.1,-39.25"
   id="path60" />&#10;			<path
   class="st2"
   d="m 297.48,69.61 c 0,0 0.78,-0.05 0.78,-0.43 0,-0.37 0,-0.7 0,-0.7"
   id="path61" />&#10;			<line
   class="st4"
   x1="219.28"
   y1="111.43"
   x2="214.98"
   y2="106.35"
   id="line61" />&#10;			<path
   class="st3"
   d="M 4.84,68.57"
   id="path62" />&#10;			<path
   class="st2"
   d="m 181.29,107.06 c 0,0 -1.47,0.16 -2.27,2.04 -0.81,1.87 -2.51,5.38 -3.6,6.91"
   id="path63" />&#10;			<path
   class="st2"
   d="M 118.59,115.36"
   id="path64" />&#10;			<path
   class="st2"
   d="M 161.84,114.94"
   id="path65" />&#10;			<path
   class="st2"
   d="m 166.99,107.94 c 0,0 0.88,0.07 0.99,0.69 0.12,0.62 -0.29,0.95 -0.85,1.59 -0.57,0.64 -2.31,2.74 -2.98,3.27 0,0 -2.28,2.2 -3.73,3.3"
   id="path66" />&#10;			<path
   class="st3"
   d="m 118.91,115.04 c 0,0 -1.35,1.3 -2.13,1.92"
   id="path67" />&#10;			<path
   class="st2"
   d="m 217.06,106.46 3.59,3.89 c 0,0 8.37,-1.35 10.41,-2.04 0,0 1.03,-0.28 -0.11,-0.48 -1.14,-0.2 -7.58,-1.07 -10.89,-1.3"
   id="path68" />&#10;			<path
   class="st2"
   d="m 213.15,106.36 c 0,0 2.97,3.62 4.65,5.29"
   id="path69" />&#10;			<path
   class="st2"
   d="m 227.79,120.44 c -5.75,0.07 -11.18,0.1 -14.97,0.08"
   id="path70" />&#10;			<path
   class="st2"
   d="m 285.49,104.24 c 0,0 -4.55,7.46 -11.15,10.83 -0.66,0.33 -1.3,0.64 -1.95,0.93"
   id="path71" />&#10;			<path
   class="st2"
   d="m 244.36,101.97 c 0,0 -54.7,2.98 -64.58,3.41 -9.88,0.43 -28.42,1.56 -41.06,3.41"
   id="path72" />&#10;			<path
   class="st2"
   d="m 255.51,96.8 c 0,0 2.63,-8.12 2.63,-28.29"
   id="path73" />&#10;		</g>&#10;	</g>&#10;	<g
   id="g144">&#10;		<g
   id="g143">&#10;			<path
   class="st1"
   d="m 16.48,68.6 c 0,0 0.54,1.54 1.84,1.54 1.3,0 1.42,0 1.42,0 0,0 0.42,-0.05 0.42,-1.56"
   id="path74" />&#10;			<path
   class="st2"
   d="m 122,68.51 c 0,-0.43 -0.35,-0.77 -0.77,-0.77 -0.43,0 -0.77,0.35 -0.77,0.77 0,0.43 0.34,0.77 0.77,0.77 0.42,0 0.77,-0.34 0.77,-0.77 z"
   id="path75" />&#10;			<path
   class="st2"
   d="m 280.55,68.51 0.01,-3.6 c 0.04,-0.64 0.16,-1.32 0.3,-1.65 0.06,-0.16 0.13,-0.3 0.2,-0.45 0.23,-0.5 0.39,-0.89 0.46,-1.32 0.14,-0.89 0.11,-1.96 -0.09,-3.28 -0.02,-0.16 -0.66,-4.97 -1.23,-7.29 -0.46,-1.85 -1.4,-5.11 -2.11,-6.49 -1.13,-2.2 -2.59,-3.88 -4.32,-4.21 -0.37,-0.07 -2.99,-0.38 -8.8,-0.38"
   id="path76" />&#10;			<path
   class="st2"
   d="m 282.6,67.77 c 0,0 0.31,0.23 0.67,0.53"
   id="path77" />&#10;			<path
   class="st3"
   d="M 4.84,68.65"
   id="path78" />&#10;			<path
   class="st3"
   d="m 98.36,11.84 -0.06,-1 c 0,0 0.06,-0.63 -0.86,-0.63 -0.91,0 -0.91,0 -0.91,0 0,0 -0.54,0.06 -1.09,0.43 -0.55,0.37 -1.09,0.92 -1.92,0.86 -0.83,-0.06 -6.59,-0.66 -7.9,-0.51 0,0 -0.41,0.1 0.05,0.18 0,0 6.83,0.48 7.77,0.54 0.93,0.05 3.3,0.18 4.92,0.13 z"
   id="path79" />&#10;			<path
   class="st3"
   d="m 93.55,11.69 c -0.08,0.53 0.04,1.08 -5.49,0.75 -3.45,-0.21 -5.67,-1.11 -5.63,-1.65 0.04,-0.54 2.44,-0.61 5.89,-0.41 2.78,0.16 4.71,0.53 5.15,1.1"
   id="path80" />&#10;			<path
   class="st2"
   d="M 104.22,19.7"
   id="path81" />&#10;			<path
   class="st3"
   d="m 98.36,11.84 c 0.72,1.09 5.86,7.86 5.86,7.86 -4.73,0.9 -8.27,3.86 -8.27,3.86 0,0 -14.83,12.88 -14.83,44.95"
   id="path82" />&#10;			<path
   class="st2"
   d="M 34.97,21.12"
   id="path83" />&#10;			<path
   class="st3"
   d="m 121.24,5.15 c 0,0 -1.95,1.29 -2.93,2.29 -2.45,2.49 -4.78,6 -4.78,6 -0.93,1.39 -0.2,2.21 -0.2,2.21 0.43,0.7 2.19,0.64 2.19,0.64 4.18,-0.04 6,-0.29 6.42,-0.34 0.41,-0.06 1.2,-1.22 1.2,-1.22 2.02,-2.99 5.14,-8.29 5.38,-8.77 0.25,-0.48 -0.01,-0.7 -0.16,-0.84 -0.14,-0.14 -0.45,-0.07 -0.45,-0.07 l -0.05,-0.22 c 0,0 -1.01,-0.36 -2.9,-0.36 -1.36,0 -2.51,0.25 -3.46,0.59 -0.39,0.13 -0.74,0.29 -1.05,0.44 -1.24,0.61 -1.9,1.1 -1.9,1.1 -2.8,1.98 -6.04,6.87 -6.04,6.87 0,0 -0.75,1.03 -0.75,1.77 0,0.67 1.15,1.18 1.15,1.18 0,0 0.8,0.49 2.98,0.6 3.11,0.16 3.83,-0.82 3.83,-0.82"
   id="path84" />&#10;			<path
   class="st2"
   d="m 121.93,15.95 c 0,0 -0.03,-0.36 0.57,-1.3 0.6,-0.95 2.95,-4.71 5.6,-8.66 0,0 0.32,-0.47 0.52,-0.36"
   id="path85" />&#10;			<path
   class="st2"
   d="m 127.81,5.14 c 0,0 -3.99,6 -5.84,9.16"
   id="path86" />&#10;			<polyline
   class="st3"
   points="98.51,11.85 99.16,11.66 113.9,11.41    "
   id="polyline86" />&#10;			<path
   class="st3"
   d="m 292.67,28.94 c 0.92,1.83 2.98,8.42 4.01,14.72 1.03,6.3 2.53,10.5 2.53,24.85"
   id="path87" />&#10;			<path
   class="st3"
   d="M 278.85,16.76"
   id="path88" />&#10;			<path
   class="st3"
   d="m 125.37,11.33 c 0,0 27.91,0.08 38.22,0.08 10.31,0 34.89,0.3 37.49,0.19 2.59,-0.11 4.39,-0.42 6.57,-0.84 2.18,-0.42 3.7,-0.72 5.73,-0.76 2.02,-0.04 26.55,-0.13 31.3,-0.13 4.75,0 12.6,0.34 15.35,0.63 2.75,0.29 3.93,0.38 5.46,0.95 0,0 10.23,3.68 12.82,5.06 2.59,1.38 6.72,4.09 9.31,6.81 2.59,2.71 4.88,5.28 4.88,5.28 0,0 4.64,2.29 6.13,10.19 1.49,7.9 3.26,14.94 3.26,29.72"
   id="path89" />&#10;			<path
   class="st3"
   d="m 245.37,9.85 c 0,0 3.17,1.91 6.87,3.05 3.7,1.15 12.6,3.78 17.14,5.88 4.54,2.1 9.28,4.7 11.84,7.44 2.56,2.75 4.35,4.89 5.65,7.6 1.3,2.71 7.06,12.92 7.06,34.68"
   id="path90" />&#10;			<path
   class="st3"
   d="m 164.22,11.41 c 0,0 0.34,0.17 0.66,0.69 0.32,0.51 4.09,7.13 4.09,7.13 l -0.08,1.14"
   id="path91" />&#10;			<path
   class="st2"
   d="m 104.24,19.66 c 0,0 8.19,-0.77 12.39,-0.88 4.2,-0.12 36.12,-0.46 52.04,0.54"
   id="path92" />&#10;			<path
   class="st2"
   d="m 169.16,19.27 c 0,0 11.49,0.66 21.93,1.56 0,0 47.05,5.3 47.05,7.75 0,2.26 -21.62,2.94 -34.58,2.82 -12.97,-0.12 -45.84,-1.97 -45.84,-1.97 -4.15,-0.23 -8.29,-0.55 -11.36,-1.01 -3.09,-0.46 -5.79,-1.09 -9.39,-1.83 -3.61,-0.74 -31.15,-6.99 -31.15,-6.99"
   id="path93" />&#10;			<path
   class="st2"
   d="M 174.39,29.24"
   id="path94" />&#10;			<path
   class="st3"
   d="m 110.79,20.29 c 25.42,-0.98 25.42,-1.08 53.49,0.12 1.53,0.07 3.06,0.14 4.58,0.22 0,0 11.32,0.66 22.2,1.58 0,0 44.08,4.61 44.08,6.62 0,1.94 -29.07,2.07 -37.84,1.82 -8.77,-0.25 -39.41,-2.02 -39.41,-2.02 -3.34,-0.17 -6.22,-0.33 -7.57,-0.46 -3.86,-0.34 -11.34,-1.76 -14.82,-2.52 -3.48,-0.76 -24.71,-5.36 -24.71,-5.36"
   id="path95" />&#10;			<path
   class="st3"
   d="m 164.35,20.61 c 0,0 3.89,3.09 7.56,8.44 l 0.21,0.34"
   id="path96" />&#10;			<path
   class="st3"
   d="m 174.13,21.18 c 0,0 2.93,5.56 3.88,8.46"
   id="path97" />&#10;			<path
   class="st2"
   d="m 165.15,20.69 c 0,0 4.39,3.51 7.48,8.32 l 0.3,0.45"
   id="path98" />&#10;			<path
   class="st2"
   d="m 173.44,21.11 c 0,0 2.89,5.5 3.85,8.55"
   id="path99" />&#10;			<path
   class="st3"
   d="m 148.89,11.7 c 0,0 -0.88,-0.02 -0.88,0.15 0,0.17 0.57,0.26 1.07,0.36 0.49,0.1 3.57,0.44 5.67,0.44 2.1,0 5.32,0.13 5.9,0.11 0.57,-0.02 1.05,-0.09 1.05,-0.32 0,-0.23 -0.64,-0.48 -1.42,-0.52 -0.78,-0.03 -10.67,-0.26 -11.39,-0.22 z"
   id="path100" />&#10;			<path
   class="st3"
   d="m 227.56,9.95 c 0,0 0.8,1.49 1.12,2.38 0.31,0.89 0.57,1.69 0.4,3.18 0,0 0.03,0.86 -1.32,2.52 -1.34,1.66 -4.67,5.41 -5.67,6.47 0,0 -0.49,0.63 -0.52,1.2"
   id="path101" />&#10;			<path
   class="st3"
   d="m 206.37,12.39 c 0,0 -1.44,-0.06 -1.45,0.17 -0.02,0.23 1.36,0.72 3.4,0.72 2.04,0 7.23,-0.02 9.16,-0.11 0,0 1.09,-0.02 1.05,-0.38 0,0 0.02,-0.48 -1.26,-0.48 -1.13,0 -10.12,0.09 -10.9,0.08"
   id="path102" />&#10;			<path
   class="st2"
   d="m 227.05,22.94 c 0,0 27.72,1.27 54.54,7.63"
   id="path103" />&#10;			<path
   class="st3"
   d="m 102.2,20.8 c 0,0 16.38,3.36 30.51,7.33 0,0 4.85,1.14 3.78,4.2 -1.07,3.05 -4.73,14.72 -4.73,36.17"
   id="path104" />&#10;			<path
   class="st2"
   d="m 90.21,68.53 c 0,-23.21 11.76,-41.08 11.76,-41.08 0,0 2.12,-3.89 9.68,-2.23 7.56,1.66 15.35,3.55 18.27,4.52 2.92,0.97 4.3,2.18 3.15,6.81 -1.15,4.64 -2.98,14.09 -2.98,21.99 0,0 0,0.43 -0.6,0.63 -0.6,0.2 -4.38,1.37 -5.01,1.63 -0.63,0.26 -1.46,0.92 -1.52,2 -0.06,1.09 -0.2,2.46 -0.2,2.46 0,0 0.09,0.49 -0.63,0.71 -0.71,0.23 -1.97,0.52 -2.29,0.66 -0.31,0.14 -1,0.51 -1,1.86"
   id="path105" />&#10;			<path
   class="st2"
   d="m 112.48,25.41 c 0,0 -3.66,-0.54 -5.64,-0.03 -0.44,0.12 -0.84,0.22 -1.23,0.35 -1.35,0.43 -2.4,1.06 -3.41,2.89 -1.29,2.35 -10.14,19.84 -10.76,34.56 0,0 -0.08,0.57 -0.3,0.99 -0.23,0.42 -0.89,1.55 -0.89,2.54 -0.01,1.05 -0.02,1.81 -0.02,1.81"
   id="path106" />&#10;			<line
   class="st2"
   x1="105.98"
   y1="25.84"
   x2="132.92999"
   y2="32.099998"
   id="line106" />&#10;			<path
   class="st2"
   d="m 106.59,26.22 c 0,0 -11.44,16.17 -11.44,42.28"
   id="path107" />&#10;			<path
   class="st2"
   d="m 286.03,33.59 c 0,0 7.29,12.69 7.29,34.92"
   id="path108" />&#10;			<path
   class="st3"
   d="m 266.36,17.48 c 0,0 11.19,0.11 16.01,4.12 0,0 7.73,5.5 10.42,15.77 2.43,9.26 4.68,14.41 4.68,31.13"
   id="path109" />&#10;			<path
   class="st2"
   d="m 287.29,34.63 c 0,0 2.81,0.29 4.3,0.86 l 0.8,0.57"
   id="path110" />&#10;			<path
   class="st1"
   d="m 16.48,68.51 c 0,0 0.54,-1.54 1.84,-1.54 1.3,0 1.42,0 1.42,0 0,0 0.42,0.05 0.42,1.56"
   id="path111" />&#10;			<path
   class="st3"
   d="m 247.23,68.51 c 0,0 -0.25,-24.02 -0.38,-29.47 0,0 -0.19,-2.79 0.44,-3.57 0.62,-0.78 2.32,-1.53 6.45,-1.94 4.14,-0.41 11.78,-0.66 14.04,-0.53 2.25,0.12 5.51,0.44 8.02,2.88 2.51,2.44 6.16,8.55 7.47,16.2 1.32,7.64 1.45,10.61 1.45,16.43"
   id="path112" />&#10;			<path
   class="st3"
   d="m 255.68,33.46 c 0,0 4.57,2.13 6.77,4.01 2.19,1.88 3.45,2.76 4.51,6.77 1.06,4.01 3.11,10.54 3.11,24.27"
   id="path113" />&#10;			<path
   class="st3"
   d="m 264.06,35.07 c -0.35,0.18 -0.64,0.47 -0.69,0.96 -0.01,0.07 -0.01,0.15 -0.02,0.22 -0.11,1.17 -0.11,1.85 -0.11,1.85"
   id="path114" />&#10;			<path
   class="st2"
   d="m 274.33,34.84 -8.98,-0.03 c 0,0 -0.72,-0.03 -1.29,0.26"
   id="path115" />&#10;			<path
   class="st3"
   d="m 263.36,36.25 c 0,0 0.47,-0.41 1.48,-0.42 1,-0.02 11.08,0.16 11.08,0.16"
   id="path116" />&#10;			<path
   class="st2"
   d="m 260.62,33.26 c 0,0 2.5,0.52 4.46,1.11"
   id="path117" />&#10;			<path
   class="st2"
   d="m 257.11,33.43 c 0,0 3.84,0.69 6.31,1.39"
   id="path118" />&#10;			<path
   class="st2"
   d="m 260.01,34.98 c 0,0 1.64,0.27 2.91,0.66"
   id="path119" />&#10;			<path
   class="st2"
   d="m 136.48,32.33 c 0,0 52.1,2.22 110.37,6.71"
   id="path120" />&#10;			<path
   class="st2"
   d="m 272.92,33.95 c 0,0 1.61,-0.88 3.3,-1.23 0,0 1.23,-0.23 2.9,-0.1 1.67,0.12 7.54,0.9 7.54,0.9"
   id="path121" />&#10;			<path
   class="st2"
   d="m 247.01,39.04 c 0,0 3.14,0.26 7.1,0.6 2.93,0.25 8.38,0.71 11.26,0.99"
   id="path122" />&#10;			<path
   class="st2"
   d="M 254.26,39.67"
   id="path123" />&#10;			<path
   class="st2"
   d="M 256.95,39.89"
   id="path124" />&#10;			<path
   class="st2"
   d="m 255.51,40.22 c -0.52,-0.53 -1.49,-0.57 -1.49,-0.57"
   id="path125" />&#10;			<path
   class="st2"
   d="M 257.09,39.9"
   id="path126" />&#10;			<path
   class="st2"
   d="m 257.24,39.93 c 0,0 -0.97,-0.13 -1.72,0.28 0,0 2.63,7.96 2.63,28.14"
   id="path127" />&#10;			<path
   class="st2"
   d="M 257.32,40.61"
   id="path128" />&#10;			<path
   class="st2"
   d="m 268.36,12.62 c 0,0 13.87,4.18 20.05,15.29"
   id="path129" />&#10;			<path
   class="st2"
   d="m 293.59,29.27 c 0,0 7.1,12.31 7.1,39.25"
   id="path130" />&#10;			<path
   class="st2"
   d="m 297.48,67.4 c 0,0 0.78,0.05 0.78,0.43 0,0.37 0,0.7 0,0.7"
   id="path131" />&#10;			<line
   class="st4"
   x1="219.28"
   y1="25.59"
   x2="214.98"
   y2="30.66"
   id="line131" />&#10;			<path
   class="st3"
   d="M 4.84,68.45"
   id="path132" />&#10;			<path
   class="st2"
   d="m 181.29,29.95 c 0,0 -1.47,-0.16 -2.27,-2.04 -0.81,-1.87 -2.51,-5.38 -3.6,-6.91"
   id="path133" />&#10;			<path
   class="st2"
   d="M 118.59,21.66"
   id="path134" />&#10;			<path
   class="st2"
   d="M 161.84,22.08"
   id="path135" />&#10;			<path
   class="st2"
   d="m 166.99,29.08 c 0,0 0.88,-0.07 0.99,-0.69 0.12,-0.62 -0.29,-0.95 -0.85,-1.59 -0.57,-0.64 -2.31,-2.74 -2.98,-3.27 0,0 -2.28,-2.2 -3.73,-3.3"
   id="path136" />&#10;			<path
   class="st3"
   d="m 118.91,21.97 c 0,0 -1.35,-1.3 -2.13,-1.92"
   id="path137" />&#10;			<path
   class="st2"
   d="m 217.06,30.55 3.59,-3.89 c 0,0 8.37,1.35 10.41,2.04 0,0 1.03,0.28 -0.11,0.48 -1.14,0.2 -7.58,1.07 -10.89,1.3"
   id="path138" />&#10;			<path
   class="st2"
   d="m 213.15,30.66 c 0,0 2.97,-3.62 4.65,-5.29"
   id="path139" />&#10;			<path
   class="st2"
   d="m 227.79,16.58 c -5.75,-0.07 -11.18,-0.1 -14.97,-0.08"
   id="path140" />&#10;			<path
   class="st2"
   d="m 285.49,32.77 c 0,0 -4.55,-7.46 -11.15,-10.83 -0.66,-0.33 -1.3,-0.64 -1.95,-0.93"
   id="path141" />&#10;			<path
   class="st2"
   d="m 244.36,35.05 c 0,0 -54.7,-2.98 -64.58,-3.41 -9.88,-0.43 -28.42,-1.56 -41.06,-3.41"
   id="path142" />&#10;			<path
   class="st2"
   d="m 255.51,40.22 c 0,0 2.63,8.12 2.63,28.29"
   id="path143" />&#10;		</g>&#10;	</g>&#10;	<path
   class="st2"
   d="M 35.18,115.64"
   id="path144" />&#10;	<path
   class="st2"
   d="m 17.41,83.4 c 0,0 22.64,3.21 59.06,3.78"
   id="path145" />&#10;	<path
   class="st3"
   d="m 36.67,122.2 c 0.44,0.79 2.06,1.35 2.06,1.35 5.39,2.07 8.96,2.89 9.77,3.12 0.8,0.23 2.12,0.29 2.12,0.29 0,0 6.84,0 10.99,0 4.16,0 16.86,-0.09 19.81,-0.09 2.95,0 5.36,-0.03 7.69,-0.24 2.33,-0.21 4.56,-0.56 5.68,-0.66"
   id="path146" />&#10;	<path
   class="st3"
   d="M 35.95,122.99"
   id="path147" />&#10;	<path
   class="st3"
   d="M 37.01,126"
   id="path148" />&#10;	<path
   class="st3"
   d="m 51.05,126.97 c 0,0 -6.15,0.06 -7.58,0 0,0 -5.47,0.07 -6.45,-1.09 0,0 -5.1,-1.03 -10.05,-3.67 -4.95,-2.64 -7.66,-6.48 -9.82,-9.47 -2.16,-2.99 -5.61,-7.32 -7.97,-14.65"
   id="path149" />&#10;	<path
   class="st3"
   d="m 11.43,68.51 c 0,19.27 5.4,29.07 5.82,29.94 0.41,0.87 1.34,1.73 1.94,2.13 0.6,0.4 3.58,2.32 4.72,3.14 1.14,0.83 2.34,1.71 3.13,2.49 0.79,0.78 1.34,1.56 2.9,3.75 1.56,2.18 5.97,8.66 6.82,10.13 0.85,1.47 -0.09,2.12 -0.09,2.12"
   id="path150" />&#10;	<path
   class="st3"
   d="m 21.46,102.06 c 0,0 5.52,10.13 10.91,16.98 0,0 0.47,0.55 1.05,1.04 0.07,0.06 0.13,0.11 0.2,0.17 0.32,0.26 0.66,0.48 0.96,0.58 0.92,0.3 1.91,0.48 2.54,0.56"
   id="path151" />&#10;	<path
   class="st2"
   d="m 24.48,104.14 3.99,6.85 c 0,0 0.41,0.7 1.34,0.9 0.92,0.21 1.65,0.23 1.65,0.23"
   id="path152" />&#10;	<path
   class="st2"
   d="m 32.3,113.35 -1.55,0.37 c 0,0 -0.47,0.17 0,0.83 0.47,0.66 1.72,2.59 4.29,5.59 0,0 0.82,0.79 2.01,0.64"
   id="path153" />&#10;	<path
   class="st2"
   d="m 27.97,106.02 c 0,0 17.65,4.3 27.44,5.58 9.79,1.28 20.19,2.42 32.84,3.39"
   id="path154" />&#10;	<path
   class="st2"
   d="m 38.55,119.74 c 0,0 11.87,3.13 25.65,2.76 13.78,-0.37 24.58,-2.02 35.88,-1.68"
   id="path155" />&#10;	<path
   class="st5"
   d="M 26.63,118.33"
   id="path156" />&#10;	<path
   class="st1"
   d="m 8.97,97.29 c 0,0 4.37,9.9 13.46,18.98 0,0 3.77,4.09 4.69,4.87 0.93,0.78 3.64,2.95 9.26,4.59"
   id="path157" />&#10;	<path
   class="st5"
   d="M 24.64,120.55"
   id="path158" />&#10;	<path
   class="st5"
   d="M 28.48,121.5"
   id="path159" />&#10;	<path
   class="st5"
   d="M 25.53,120.8"
   id="path160" />&#10;	<path
   class="st5"
   d="M 23.35,117.19"
   id="path161" />&#10;	<path
   class="st2"
   d="m 44.18,125.41 -0.93,0.07 c 0,0 -0.54,0.09 0.21,0.34 0.75,0.25 2.18,0.73 3.89,1.17"
   id="path162" />&#10;	<path
   class="st1"
   d="m 23.58,117.52 c 0,0 3.85,4.42 6.73,4.92 2.88,0.5 3.99,0.42 6.8,0.54"
   id="path163" />&#10;	<path
   class="st3"
   d="m 15.64,94.76 c 0,0 19.69,6.6 24.51,8.03 4.82,1.43 19.7,5.36 29.16,7.12 9.46,1.76 12.12,2.26 15.55,2.63 3.43,0.37 5.44,0.42 10.68,0.54"
   id="path164" />&#10;	<path
   class="st3"
   d="m 9.18,98.08 c 0,0 -4.34,-12.56 -4.34,-29.52"
   id="path165" />&#10;	<path
   class="st2"
   d="m 23.19,117.19 c 0,0 0.09,0.68 0.82,1.49 l 0.47,0.43 c 0,0 0.19,0.39 -0.13,0.28 -0.59,-0.2 -1.15,-0.47 -1.68,-1.15 -0.53,-0.68 -0.7,-2.35 -0.7,-2.35"
   id="path166" />&#10;	<path
   class="st2"
   d="m 18.31,100.49 c 0,0 6.66,12.36 14.23,20.3 0,0 0.98,1.04 1.51,1.24"
   id="path167" />&#10;	<path
   class="st2"
   d="m 29.04,121.3 c 0,0 1.47,0.81 3.35,0.9 1.88,0.09 3.92,0.13 3.92,0.13"
   id="path168" />&#10;	<path
   class="st3"
   d="m 33.24,119.93 1,1.01 c 0,0 0.49,0.68 2.14,1.09 l 0.41,0.06"
   id="path169" />&#10;	<path
   class="st2"
   d="m 149.5,68.51 0.45,19.04 c 0,0 0.08,7.26 6.7,6.88 6.63,-0.38 50.16,-2.67 63.07,-3.73 10.16,-0.83 12.5,-7.01 12.8,-7.79 0,0 0.98,-2.82 1.09,-6.44 0.11,-3.62 0,-7.96 0,-7.96"
   id="path170" />&#10;	<path
   class="st2"
   d="m 270.26,116.75 c 0,0 -9.7,3.28 -24.21,3.51 -14.51,0.23 -15.61,0.22 -15.61,0.22"
   id="path171" />&#10;	<path
   class="st2"
   d="M 35.18,21.38"
   id="path172" />&#10;	<path
   class="st2"
   d="m 17.41,53.62 c 0,0 22.64,-3.21 59.06,-3.78"
   id="path173" />&#10;	<path
   class="st3"
   d="m 36.67,14.81 c 0.44,-0.79 2.06,-1.35 2.06,-1.35 5.39,-2.07 8.96,-2.89 9.77,-3.12 0.8,-0.23 2.12,-0.29 2.12,-0.29 0,0 6.84,0 10.99,0 4.16,0 16.86,0.09 19.81,0.09 2.95,0 5.36,0.03 7.69,0.24 2.33,0.21 4.56,0.56 5.68,0.66"
   id="path174" />&#10;	<path
   class="st3"
   d="M 35.95,14.03"
   id="path175" />&#10;	<path
   class="st3"
   d="M 37.01,11.02"
   id="path176" />&#10;	<path
   class="st3"
   d="m 51.05,10.05 c 0,0 -6.15,-0.06 -7.58,0 0,0 -5.47,-0.07 -6.45,1.09 0,0 -5.1,1.03 -10.05,3.67 -4.95,2.64 -7.66,6.48 -9.82,9.47 -2.16,2.99 -5.61,7.32 -7.97,14.65"
   id="path177" />&#10;	<path
   class="st3"
   d="m 11.43,68.51 c 0,-19.27 5.4,-29.07 5.82,-29.94 0.41,-0.87 1.34,-1.73 1.94,-2.13 0.6,-0.4 3.58,-2.32 4.72,-3.14 1.14,-0.83 2.34,-1.71 3.13,-2.49 0.79,-0.77 1.34,-1.56 2.9,-3.75 1.56,-2.18 5.97,-8.66 6.82,-10.13 0.85,-1.47 -0.09,-2.12 -0.09,-2.12"
   id="path178" />&#10;	<path
   class="st3"
   d="m 21.46,34.96 c 0,0 5.52,-10.13 10.91,-16.98 0,0 0.47,-0.55 1.05,-1.04 0.07,-0.06 0.13,-0.11 0.2,-0.17 0.32,-0.26 0.66,-0.48 0.96,-0.58 0.92,-0.3 1.91,-0.48 2.54,-0.56"
   id="path179" />&#10;	<path
   class="st2"
   d="m 24.48,32.88 3.99,-6.85 c 0,0 0.41,-0.7 1.34,-0.9 0.92,-0.21 1.65,-0.23 1.65,-0.23"
   id="path180" />&#10;	<path
   class="st2"
   d="M 32.3,23.67 30.75,23.3 c 0,0 -0.47,-0.17 0,-0.83 0.47,-0.66 1.72,-2.59 4.29,-5.59 0,0 0.82,-0.79 2.01,-0.64"
   id="path181" />&#10;	<path
   class="st2"
   d="m 27.97,31 c 0,0 17.65,-4.3 27.44,-5.58 C 65.2,24.14 75.6,23 88.25,22.04"
   id="path182" />&#10;	<path
   class="st2"
   d="m 38.55,17.28 c 0,0 11.87,-3.13 25.65,-2.76 13.78,0.38 24.58,2.02 35.88,1.68"
   id="path183" />&#10;	<path
   class="st5"
   d="M 26.63,18.69"
   id="path184" />&#10;	<path
   class="st1"
   d="m 8.97,39.72 c 0,0 4.37,-9.9 13.46,-18.98 0,0 3.77,-4.09 4.69,-4.87 0.93,-0.78 3.64,-2.95 9.26,-4.59"
   id="path185" />&#10;	<path
   class="st5"
   d="M 24.64,16.46"
   id="path186" />&#10;	<path
   class="st5"
   d="M 28.48,15.51"
   id="path187" />&#10;	<path
   class="st5"
   d="M 25.53,16.22"
   id="path188" />&#10;	<path
   class="st5"
   d="M 23.35,19.83"
   id="path189" />&#10;	<path
   class="st2"
   d="m 44.18,11.6 -0.93,-0.07 c 0,0 -0.54,-0.09 0.21,-0.34 0.75,-0.25 2.18,-0.73 3.89,-1.17"
   id="path190" />&#10;	<path
   class="st1"
   d="m 23.58,19.49 c 0,0 3.85,-4.42 6.73,-4.92 2.88,-0.51 3.99,-0.42 6.8,-0.54"
   id="path191" />&#10;	<path
   class="st3"
   d="m 15.64,42.25 c 0,0 19.69,-6.6 24.51,-8.03 4.82,-1.43 19.7,-5.36 29.16,-7.12 9.46,-1.76 12.12,-2.26 15.55,-2.63 3.43,-0.37 5.44,-0.42 10.68,-0.54"
   id="path192" />&#10;	<path
   class="st3"
   d="m 9.18,38.93 c 0,0 -4.34,12.56 -4.34,29.52"
   id="path193" />&#10;	<path
   class="st2"
   d="m 23.19,19.83 c 0,0 0.09,-0.68 0.82,-1.49 l 0.47,-0.43 c 0,0 0.19,-0.39 -0.13,-0.28 -0.59,0.2 -1.15,0.47 -1.68,1.15 -0.53,0.68 -0.7,2.35 -0.7,2.35"
   id="path194" />&#10;	<path
   class="st2"
   d="m 18.31,36.52 c 0,0 6.66,-12.36 14.23,-20.3 0,0 0.98,-1.04 1.51,-1.24"
   id="path195" />&#10;	<path
   class="st2"
   d="m 29.04,15.72 c 0,0 1.47,-0.81 3.35,-0.9 1.88,-0.09 3.92,-0.13 3.92,-0.13"
   id="path196" />&#10;	<path
   class="st3"
   d="m 33.24,17.08 1,-1.01 c 0,0 0.49,-0.68 2.14,-1.09 l 0.41,-0.06"
   id="path197" />&#10;	<path
   class="st2"
   d="m 149.5,68.51 0.45,-19.04 c 0,0 0.08,-7.26 6.7,-6.88 6.63,0.38 50.16,2.67 63.07,3.73 10.16,0.83 12.5,7.01 12.8,7.79 0,0 0.98,2.82 1.09,6.44 0.11,3.61 0,7.96 0,7.96"
   id="path198" />&#10;	<path
   class="st2"
   d="m 270.26,20.27 c 0,0 -9.7,-3.28 -24.21,-3.51 -14.51,-0.23 -15.61,-0.22 -15.61,-0.22"
   id="path199" />&#10;	<g
   id="g217">&#10;		<path
   class="st2"
   d="m 85.6,52.62 c -1.13,4.87 -1.84,10.2 -1.84,15.92"
   id="path200" />&#10;		<path
   class="st1"
   d="m 86.51,49.1 c -0.14,0.48 -0.27,0.97 -0.4,1.46"
   id="path201" />&#10;		<path
   class="st2"
   d="m 98.53,24.61 c -2.26,3.02 -6.02,8.67 -9.18,16.34"
   id="path202" />&#10;		<path
   class="st2"
   d="m 104.11,19.71 c 0,0 -1.75,0.51 -3.43,2.26"
   id="path203" />&#10;		<path
   class="st1"
   d="M 104.28,117.28"
   id="path204" />&#10;		<path
   class="st2"
   d="M 85.15,82.2 C 84.29,77.91 83.76,73.29 83.76,68.39"
   id="path205" />&#10;		<path
   class="st2"
   d="M 86.42,87.5 C 86.07,86.26 85.75,84.98 85.46,83.67"
   id="path206" />&#10;		<path
   class="st2"
   d="m 104.11,117.22 c 0,0 -1.97,-0.57 -3.74,-2.6 -1.22,-1.39 -8.62,-10.4 -13.12,-24.37"
   id="path207" />&#10;		<path
   class="st1"
   d="m 81.81,58.03 c 0,0 7.26,-16.21 9.71,-20.14 l 0.57,-0.57 0.25,0.08 1.59,-3 -0.63,-0.36 h -0.6 l -1.43,2.77 -0.09,0.86 c -4.51,8.1 -9.14,18.04 -9.14,18.04"
   id="path208" />&#10;		<line
   class="st6"
   x1="92.129997"
   y1="37.080002"
   x2="93.370003"
   y2="34.560001"
   id="line208" />&#10;		<line
   class="st6"
   x1="92.779999"
   y1="34.119999"
   x2="93.269997"
   y2="34.389999"
   id="line209" />&#10;		<line
   class="st6"
   x1="93.529999"
   y1="34.439999"
   x2="93.75"
   y2="34.41"
   id="line210" />&#10;		<path
   class="st1"
   d="M 93.35,34.05 C 93.61,33.44 99.48,23 99.48,23 l 0.02,-0.07 c 0,0 0.46,-0.83 0.56,-0.96 0.1,-0.13 0.29,-0.07 0.29,-0.07 0,0 0.36,0.16 0.47,0.24 0.11,0.08 0.07,0.23 0.07,0.23 -6.02,9.2 -13.88,26.81 -13.88,26.81 0,0 -0.11,0.09 -0.34,0 -0.23,-0.09 -0.57,-0.3 -0.57,-0.3"
   id="path210" />&#10;		<polyline
   class="st2"
   points="86.66,47.7 87.25,47.95 87.37,48.08   "
   id="polyline210" />&#10;		<line
   class="st6"
   x1="99.559998"
   y1="22.98"
   x2="100.15"
   y2="23.32"
   id="line211" />&#10;		<path
   class="st1"
   d="m 83.57,89.15 1.19,-5.25 0.53,0.1 0.23,0.27 c 0,0 -0.76,4.69 -0.96,8.64"
   id="path211" />&#10;		<line
   class="st2"
   x1="85.25"
   y1="84.199997"
   x2="84.120003"
   y2="91.150002"
   id="line212" />&#10;		<path
   class="st1"
   d="m 84.9,83.89 c 0,0 0.29,-1.64 0.38,-2.58 0.1,-0.93 0.21,-7.53 0.17,-7.83 -0.04,-0.31 -0.44,-1 -0.44,-1 l -0.04,-3.11 0.36,-0.15 0.8,0.04 0.06,3.3 -0.31,0.33 c 0,0 -0.1,0.27 -0.1,0.5 0,0.23 0.06,6.54 -0.1,7.9 -0.15,1.36 -0.32,2.73 -0.32,2.73"
   id="path212" />&#10;		<line
   class="st6"
   x1="85.120003"
   y1="69.419998"
   x2="85.730003"
   y2="69.43"
   id="line213" />&#10;		<line
   class="st6"
   x1="86.040001"
   y1="69.330002"
   x2="85.940002"
   y2="69.389999"
   id="line214" />&#10;		<line
   class="st6"
   x1="85.860001"
   y1="69.519997"
   x2="85.879997"
   y2="72.669998"
   id="line215" />&#10;		<path
   class="st1"
   d="m 85.43,69.07 0.21,-16.98 -0.07,-0.2 0.01,-0.91 c 0,0 0.14,-0.32 0.4,-0.32 0.26,0 0.4,0.09 0.52,0.23 0.11,0.14 0.1,0.86 0.1,1 l -0.1,0.12 c 0,0 -0.23,13.07 -0.17,17.43 0.06,4.36 0.52,12.24 0.66,14.33 0.14,2.09 0.47,4.92 0.47,4.92 l 0.09,0.15 0.1,1.03 c 0,0 -0.05,0.23 -0.2,0.26 -0.14,0.03 -0.66,-0.03 -0.66,-0.03 0,0 -0.11,-0.17 -0.14,-0.34 -0.03,-0.17 -0.08,-0.91 -0.08,-0.91 L 86.6,88.63 85.8,78.47"
   id="path215" />&#10;		<line
   class="st6"
   x1="86.629997"
   y1="88.809998"
   x2="87.349998"
   y2="88.82"
   id="line216" />&#10;		<line
   class="st6"
   x1="85.730003"
   y1="51.959999"
   x2="86.419998"
   y2="51.950001"
   id="line217" />&#10;		<path
   class="st1"
   d="M 104.28,20"
   id="path217" />&#10;	</g>&#10;</g>&#10;</svg>
