<?xml version="1.0" encoding="utf-8"?>
<!-- Generator: Adobe Illustrator 28.1.0, SVG Export Plug-In . SVG Version: 6.00 Build 0)  -->
<svg version="1.1" id="Ebene_1" xmlns="http://www.w3.org/2000/svg" xmlns:xlink="http://www.w3.org/1999/xlink" x="0px" y="0px"
	 viewBox="0 0 306.73 137.02" style="enable-background:new 0 0 306.73 137.02;" xml:space="preserve">
<style type="text/css">
	.st0{fill:none;stroke:#000000;stroke-width:0.8504;stroke-linecap:round;stroke-linejoin:round;stroke-miterlimit:10;}
	.st1{fill:none;stroke:#000000;stroke-width:0.4252;stroke-linecap:round;stroke-linejoin:round;stroke-miterlimit:10;}
	.st2{fill:none;stroke:#000000;stroke-width:0.2835;stroke-linecap:round;stroke-linejoin:round;stroke-miterlimit:10;}
	.st3{fill:none;stroke:#000000;stroke-width:0.5669;stroke-linecap:round;stroke-linejoin:round;stroke-miterlimit:10;}
	.st4{fill:none;stroke:#000000;stroke-width:0.5669;stroke-linecap:round;stroke-linejoin:round;}
	.st5{fill:none;stroke:#000000;stroke-width:0.0992;stroke-linecap:round;stroke-linejoin:round;stroke-miterlimit:10;}
	.st6{fill:none;stroke:#000000;stroke-width:0.1984;stroke-linecap:round;stroke-linejoin:round;stroke-miterlimit:10;}
</style>
<g>
	<path class="st0" d="M298.63,38.79c-1.01-5.37-3.48-8.15-4.96-9.38c-0.36-0.29-0.65-0.5-0.86-0.63c-0.2-0.12-0.31-0.18-0.31-0.18
		s-2.29-2.57-4.88-5.28c-2.59-2.71-6.73-5.43-9.32-6.81c-1.57-0.84-5.95-2.52-9.15-3.71c-2.08-0.78-3.66-1.35-3.66-1.35
		c-1.53-0.57-2.71-0.66-5.46-0.95c-2.61-0.28-9.82-0.6-14.61-0.63h-0.01c-0.25,0-0.49,0-0.73,0c-2.43,0-10.01,0.02-17.12,0.05
		c-6.81,0.03-13.2,0.06-14.19,0.08c-2.02,0.04-3.55,0.35-5.72,0.76c-2.18,0.43-3.98,0.73-6.57,0.85c-2.55,0.11-26.21-0.19-36.86-0.2
		c-0.22,0-0.43,0-0.63,0c-10.31,0-38.22-0.07-38.22-0.07l-0.05-0.03c1.56-2.51,3.03-5.02,3.19-5.35c0.06-0.13,0.09-0.24,0.1-0.33
		c0.02-0.27-0.15-0.41-0.26-0.52c-0.14-0.14-0.44-0.07-0.44-0.07l-0.06-0.21c0,0-1-0.36-2.9-0.36c-1.35,0-2.51,0.24-3.46,0.58
		c-0.09,0.03-0.18,0.07-0.27,0.11c-0.28,0.1-0.54,0.22-0.78,0.33c-1.24,0.61-1.89,1.1-1.89,1.1c-1.62,1.15-3.4,3.28-4.6,4.86
		l-0.05-0.04l-14.74,0.25l-0.65,0.19l-0.1,0.07c-0.02-0.03-0.03-0.06-0.05-0.08l-0.06-1c0,0,0.06-0.63-0.86-0.63
		c-0.91,0-0.91,0-0.91,0s-0.55,0.06-1.09,0.43c-0.55,0.37-1.09,0.92-1.92,0.86c-0.01,0-0.02,0-0.04-0.01v-0.01
		c-0.37-0.46-1.71-0.79-3.69-0.99v-0.04c-0.22-0.03-0.44-0.05-0.67-0.07c-2.33-0.21-4.74-0.24-7.69-0.24
		c-2.96,0-15.66-0.09-19.82-0.09c-3.53,0-8.99,0-10.56,0c0,0-1.81-0.02-3.69-0.03c-1.59,0-3.24,0-3.89,0.03c0,0-5.48-0.07-6.46,1.1
		c0,0-0.23,0.05-0.63,0.14c-0.02,0.01-0.03,0.01-0.05,0.01c-1.54,0.37-5.5,1.45-9.36,3.52c-4.95,2.64-7.66,6.48-9.82,9.47
		c-2.16,2.98-5.61,7.32-7.97,14.65c0,0-0.09,0.27-0.25,0.78C8,42.7,4.84,53.97,4.84,68.45v0.12c0,14.48,3.16,25.75,4.09,28.74
		c0.16,0.51,0.25,0.78,0.25,0.78c2.36,7.32,5.81,11.66,7.97,14.64c2.16,2.99,4.87,6.83,9.82,9.48c3.86,2.06,7.82,3.14,9.36,3.51
		c0.02,0,0.03,0,0.05,0.01c0.4,0.1,0.63,0.15,0.63,0.15c0.98,1.16,6.46,1.09,6.46,1.09c0.65,0.03,2.3,0.03,3.89,0.03
		c1.88-0.01,3.69-0.03,3.69-0.03c1.57,0,7.03,0,10.56,0c4.16,0,16.86-0.09,19.82-0.09c2.95,0,5.36-0.02,7.69-0.24
		c0.23-0.02,0.45-0.04,0.67-0.07v-0.04c1.98-0.2,3.32-0.53,3.69-0.99v-0.01c0.02-0.01,0.03-0.01,0.04-0.01
		c0.83-0.06,1.37,0.49,1.92,0.86c0.54,0.37,1.09,0.43,1.09,0.43s0,0,0.91,0c0.92,0,0.86-0.63,0.86-0.63l0.06-1
		c0.02-0.02,0.03-0.05,0.05-0.08l0.1,0.07l0.65,0.19l14.74,0.25l0.05-0.04c1.2,1.58,2.98,3.71,4.6,4.86c0,0,0.65,0.49,1.89,1.1
		c0.25,0.12,0.51,0.24,0.8,0.34c0.08,0.04,0.16,0.07,0.25,0.1c0.95,0.34,2.11,0.59,3.46,0.59c1.9,0,2.9-0.36,2.9-0.36l0.06-0.22
		c0,0,0.3,0.07,0.44-0.07c0.11-0.11,0.28-0.25,0.26-0.52c-0.01-0.09-0.04-0.2-0.1-0.33c-0.16-0.32-1.63-2.83-3.19-5.34l0.05-0.03
		c0,0,27.91-0.08,38.22-0.08c0.2,0,0.41,0,0.63,0c10.65-0.01,34.31-0.31,36.86-0.19c2.59,0.11,4.39,0.42,6.57,0.84
		c2.17,0.42,3.7,0.72,5.72,0.76c0.99,0.02,7.38,0.05,14.19,0.08c7.11,0.03,14.69,0.05,17.12,0.05c0.24,0,0.48,0,0.73,0h0.01
		c4.79-0.03,12-0.35,14.61-0.63c2.75-0.28,3.93-0.38,5.46-0.95c0,0,1.99-0.72,4.44-1.64c3.1-1.16,6.92-2.65,8.37-3.42
		c2.59-1.38,6.73-4.09,9.32-6.81c2.59-2.71,4.88-5.27,4.88-5.27s0.11-0.06,0.31-0.18c0.2-0.13,0.5-0.33,0.85-0.62
		c1.48-1.23,3.95-4.01,4.97-9.4c1.49-7.9,3.26-14.94,3.26-29.72C301.89,53.73,300.12,46.69,298.63,38.79z"/>
	<g>
		<g>
			<path class="st1" d="M16.48,68.42c0,0,0.54-1.54,1.84-1.54c1.3,0,1.42,0,1.42,0s0.42,0.05,0.42,1.56"/>
			<path class="st2" d="M122,68.51c0,0.43-0.35,0.77-0.77,0.77c-0.43,0-0.77-0.35-0.77-0.77c0-0.43,0.34-0.77,0.77-0.77
				C121.65,67.74,122,68.08,122,68.51z"/>
			<path class="st2" d="M280.55,68.51l0.01,3.6c0.04,0.64,0.16,1.32,0.3,1.65c0.06,0.16,0.13,0.3,0.2,0.45
				c0.23,0.5,0.39,0.89,0.46,1.32c0.14,0.89,0.11,1.96-0.09,3.28c-0.02,0.16-0.66,4.97-1.23,7.29c-0.46,1.85-1.4,5.11-2.11,6.49
				c-1.13,2.2-2.59,3.88-4.32,4.21c-0.37,0.07-2.99,0.38-8.8,0.38"/>
			<path class="st1" d="M281.75,54.82c0.6,0.12,0.77,0.91,0.77,0.91c0.93,4.18,1.74,12.1,1.71,12.4c-0.08,0.65-0.17,0.88-0.17,0.88
				s-0.31,0.37-0.45,0.5c-0.14,0.12-0.16,0.2-0.34,0.2c-0.19,0-0.58,0.02-0.88-0.33c-0.3-0.34-0.36-0.79-0.36-0.79
				c-0.37-9.42-1.04-12.64-1.04-12.64c-0.08-0.88,0.08-1.02,0.08-1.02L281.75,54.82z"/>
			<polyline class="st1" points="281.06,54.94 279.98,48.66 280.61,48.51 281.75,54.82 			"/>
			<path class="st2" d="M282.6,69.25c0,0,0.31-0.23,0.67-0.53"/>
			<path class="st3" d="M4.84,68.36"/>
			<path class="st3" d="M98.36,125.17l-0.06,1c0,0,0.06,0.63-0.86,0.63c-0.91,0-0.91,0-0.91,0s-0.54-0.06-1.09-0.43
				c-0.55-0.37-1.09-0.92-1.92-0.86c-0.83,0.06-6.59,0.66-7.9,0.51c0,0-0.41-0.1,0.05-0.18c0,0,6.83-0.48,7.77-0.54
				C94.37,125.26,96.74,125.13,98.36,125.17z"/>
			<path class="st3" d="M93.55,125.33c-0.08-0.53,0.04-1.08-5.49-0.75c-3.45,0.21-5.67,1.11-5.63,1.65
				c0.04,0.54,2.44,0.61,5.89,0.41c2.78-0.16,4.71-0.53,5.15-1.1"/>
			<path class="st2" d="M104.22,117.32"/>
			<path class="st3" d="M98.36,125.17c0.72-1.09,5.86-7.86,5.86-7.86c-4.73-0.9-8.27-3.86-8.27-3.86s-14.83-12.89-14.83-44.95"/>
			<path class="st2" d="M34.97,115.9"/>
			<path class="st3" d="M121.24,131.86c0,0-1.95-1.29-2.93-2.29c-2.45-2.49-4.78-6-4.78-6c-0.93-1.39-0.2-2.21-0.2-2.21
				c0.43-0.7,2.19-0.64,2.19-0.64c4.18,0.04,6,0.29,6.42,0.34c0.41,0.06,1.2,1.22,1.2,1.22c2.02,2.99,5.14,8.29,5.38,8.77
				c0.25,0.48-0.01,0.7-0.16,0.84c-0.14,0.14-0.45,0.07-0.45,0.07l-0.05,0.22c0,0-1.01,0.36-2.9,0.36c-1.36,0-2.51-0.25-3.46-0.59
				c-0.39-0.13-0.74-0.29-1.05-0.44c-1.24-0.61-1.9-1.1-1.9-1.1c-2.8-1.98-6.04-6.87-6.04-6.87s-0.75-1.03-0.75-1.77
				c0-0.67,1.15-1.18,1.15-1.18s0.8-0.49,2.98-0.6c3.11-0.16,3.83,0.82,3.83,0.82"/>
			<path class="st2" d="M121.93,121.07c0,0-0.03,0.36,0.57,1.3c0.6,0.95,2.95,4.71,5.6,8.66c0,0,0.32,0.47,0.52,0.36"/>
			<path class="st2" d="M127.81,131.87c0,0-3.99-6-5.84-9.16"/>
			<polyline class="st3" points="98.51,125.17 99.16,125.36 113.9,125.6 			"/>
			<path class="st3" d="M292.67,108.08c0.92-1.83,2.98-8.42,4.01-14.72c1.03-6.3,2.53-10.5,2.53-24.85"/>
			<path class="st3" d="M278.85,120.26"/>
			<path class="st3" d="M125.37,125.68c0,0,27.91-0.08,38.22-0.08c10.31,0,34.89-0.3,37.49-0.19c2.59,0.11,4.39,0.42,6.57,0.84
				c2.18,0.42,3.7,0.72,5.73,0.76c2.02,0.04,26.55,0.13,31.3,0.13c4.75,0,12.6-0.34,15.35-0.63c2.75-0.29,3.93-0.38,5.46-0.95
				c0,0,10.23-3.68,12.82-5.06c2.59-1.38,6.72-4.09,9.31-6.81c2.59-2.71,4.88-5.28,4.88-5.28s4.64-2.29,6.13-10.19
				c1.49-7.9,3.26-14.94,3.26-29.72"/>
			<path class="st3" d="M245.37,127.17c0,0,3.17-1.91,6.87-3.05c3.7-1.15,12.6-3.78,17.14-5.88c4.54-2.1,9.28-4.7,11.84-7.44
				c2.56-2.75,4.35-4.89,5.65-7.6c1.3-2.71,7.06-12.92,7.06-34.68"/>
			<path class="st3" d="M164.22,125.6c0,0,0.34-0.17,0.66-0.69c0.32-0.51,4.09-7.13,4.09-7.13l-0.08-1.14"/>
			<path class="st2" d="M106.98,117.6c2.77,0.23,7,0.56,9.64,0.64c4.2,0.12,36.12,0.46,52.04-0.54"/>
			<path class="st3" d="M104.24,117.36c0,0,1.12,0.1,2.74,0.24"/>
			<path class="st2" d="M169.16,117.74c0,0,11.49-0.66,21.93-1.56c0,0,47.05-5.3,47.05-7.75c0-2.26-21.62-2.94-34.58-2.82
				c-12.97,0.12-45.84,1.97-45.84,1.97c-4.15,0.23-8.29,0.55-11.36,1.01c-3.09,0.46-5.79,1.09-9.39,1.83
				c-3.61,0.74-31.15,6.99-31.15,6.99"/>
			<path class="st2" d="M174.39,107.78"/>
			<path class="st3" d="M110.79,116.73c0,0,21.23-4.6,24.7-5.36c3.48-0.76,10.96-2.18,14.82-2.52c1.36-0.12,4.23-0.29,7.57-0.46
				c0,0,30.64-1.77,39.41-2.02c8.77-0.25,37.84-0.12,37.84,1.82c0,2.01-44.08,6.62-44.08,6.62c-10.88,0.92-22.2,1.58-22.2,1.58
				c-1.52,0.08-3.05,0.15-4.58,0.22C136.21,117.81,136.2,117.71,110.79,116.73l-3.8,0.87"/>
			<path class="st3" d="M164.35,116.4c0,0,3.89-3.09,7.56-8.44l0.21-0.34"/>
			<path class="st3" d="M174.13,115.83c0,0,2.93-5.56,3.88-8.46"/>
			<path class="st2" d="M165.15,116.33c0,0,4.39-3.51,7.48-8.32l0.3-0.45"/>
			<path class="st2" d="M173.44,115.91c0,0,2.89-5.5,3.85-8.55"/>
			<path class="st3" d="M148.89,125.32c0,0-0.88,0.02-0.88-0.15c0-0.17,0.57-0.26,1.07-0.36c0.49-0.1,3.57-0.44,5.67-0.44
				c2.1,0,5.32-0.13,5.9-0.11c0.57,0.02,1.05,0.09,1.05,0.32c0,0.23-0.64,0.48-1.42,0.52C159.5,125.13,149.61,125.36,148.89,125.32z
				"/>
			<path class="st3" d="M227.56,127.07c0,0,0.8-1.49,1.12-2.38c0.31-0.89,0.57-1.69,0.4-3.18c0,0,0.03-0.86-1.32-2.52
				c-1.34-1.66-4.67-5.41-5.67-6.47c0,0-0.49-0.63-0.52-1.2"/>
			<path class="st3" d="M206.37,124.63c0,0-1.44,0.06-1.45-0.17c-0.02-0.23,1.36-0.72,3.4-0.72c2.04,0,7.23,0.02,9.16,0.11
				c0,0,1.09,0.02,1.05,0.38c0,0,0.02,0.48-1.26,0.48C216.14,124.71,207.15,124.61,206.37,124.63"/>
			<path class="st2" d="M227.05,114.08c0,0,27.72-1.27,54.54-7.63"/>
			<path class="st3" d="M102.2,116.21c0,0,16.38-3.36,30.51-7.33c0,0,4.85-1.14,3.78-4.2c-1.07-3.05-4.73-14.72-4.73-36.17"/>
			<path class="st2" d="M90.21,68.49c0,23.21,11.76,41.08,11.76,41.08s2.12,3.89,9.68,2.23c7.56-1.66,15.35-3.55,18.27-4.52
				c2.92-0.97,4.3-2.18,3.15-6.81c-1.15-4.64-2.98-14.09-2.98-21.99c0,0,0-0.43-0.6-0.63c-0.6-0.2-4.38-1.37-5.01-1.63
				c-0.63-0.26-1.46-0.92-1.52-2c-0.06-1.09-0.2-2.46-0.2-2.46s0.09-0.49-0.63-0.71c-0.71-0.23-1.97-0.52-2.29-0.66
				c-0.31-0.14-1-0.51-1-1.86"/>
			<path class="st2" d="M112.48,111.6c0,0-3.66,0.54-5.64,0.03c-0.44-0.12-0.84-0.22-1.23-0.35c-1.35-0.43-2.4-1.06-3.41-2.89
				c-1.29-2.35-10.14-19.84-10.76-34.56c0,0-0.08-0.57-0.3-0.99c-0.23-0.42-0.89-1.55-0.89-2.54c-0.01-1.05-0.02-1.81-0.02-1.81"/>
			<line class="st2" x1="105.98" y1="111.17" x2="132.93" y2="104.91"/>
			<path class="st2" d="M106.59,110.79c0,0-11.44-16.17-11.44-42.28"/>
			<path class="st2" d="M286.03,103.42c0,0,7.29-12.69,7.29-34.92"/>
			<path class="st3" d="M266.36,119.53c0,0,11.19-0.11,16.01-4.12c0,0,7.73-5.5,10.42-15.77c2.43-9.26,4.68-14.41,4.68-31.13"/>
			<path class="st2" d="M287.29,102.38c0,0,2.81-0.29,4.3-0.86l0.8-0.57"/>
			<path class="st1" d="M16.48,68.51c0,0,0.54,1.54,1.84,1.54c1.3,0,1.42,0,1.42,0s0.42-0.05,0.42-1.56"/>
			<path class="st3" d="M247.23,68.51c0,0-0.25,24.02-0.38,29.47c0,0-0.19,2.79,0.44,3.57c0.62,0.78,2.32,1.53,6.45,1.94
				c4.14,0.41,11.78,0.66,14.04,0.53c2.25-0.12,5.51-0.44,8.02-2.88c2.51-2.44,6.16-8.55,7.47-16.2c1.32-7.64,1.45-10.61,1.45-16.43
				"/>
			<path class="st3" d="M255.68,103.55c0,0,4.57-2.13,6.77-4.01c2.19-1.88,3.45-2.76,4.51-6.77c1.06-4.01,3.11-10.54,3.11-24.27"/>
			<path class="st3" d="M264.06,101.94c-0.35-0.18-0.64-0.47-0.69-0.96c-0.01-0.07-0.01-0.15-0.02-0.22
				c-0.11-1.17-0.11-1.85-0.11-1.85"/>
			<path class="st2" d="M274.33,102.17l-8.98,0.03c0,0-0.72,0.03-1.29-0.26"/>
			<path class="st3" d="M263.36,100.76c0,0,0.47,0.41,1.48,0.42c1,0.02,11.08-0.16,11.08-0.16"/>
			<path class="st2" d="M260.62,103.75c0,0,2.5-0.52,4.46-1.11"/>
			<path class="st2" d="M257.11,103.58c0,0,3.84-0.69,6.31-1.39"/>
			<path class="st2" d="M260.01,102.03c0,0,1.64-0.27,2.91-0.66"/>
			<path class="st2" d="M136.48,104.68c0,0,52.1-2.22,110.37-6.71"/>
			<path class="st2" d="M272.92,103.07c0,0,1.61,0.88,3.3,1.23c0,0,1.23,0.23,2.9,0.1c1.67-0.12,7.54-0.9,7.54-0.9"/>
			<path class="st2" d="M247.01,97.98c0,0,3.14-0.26,7.1-0.6c2.93-0.25,8.38-0.71,11.26-0.99"/>
			<path class="st2" d="M254.26,97.35"/>
			<path class="st2" d="M256.95,97.13"/>
			<path class="st2" d="M255.51,96.8c-0.52,0.53-1.49,0.57-1.49,0.57"/>
			<path class="st2" d="M257.09,97.11"/>
			<path class="st2" d="M257.24,97.08c0,0-0.97,0.13-1.72-0.28c0,0,2.63-7.96,2.63-28.14"/>
			<path class="st2" d="M257.32,96.41"/>
			<path class="st2" d="M268.36,124.39c0,0,13.87-4.18,20.05-15.29"/>
			<path class="st2" d="M293.59,107.75c0,0,7.1-12.31,7.1-39.25"/>
			<path class="st2" d="M297.48,69.61c0,0,0.78-0.05,0.78-0.43c0-0.37,0-0.7,0-0.7"/>
			<line class="st4" x1="219.28" y1="111.43" x2="214.98" y2="106.35"/>
			<path class="st3" d="M4.84,68.57"/>
			<path class="st2" d="M181.29,107.06c0,0-1.47,0.16-2.27,2.04c-0.81,1.87-2.51,5.38-3.6,6.91"/>
			<path class="st2" d="M118.59,115.36"/>
			<path class="st2" d="M161.84,114.94"/>
			<path class="st2" d="M166.99,107.94c0,0,0.88,0.07,0.99,0.69c0.12,0.62-0.29,0.95-0.85,1.59c-0.57,0.64-2.31,2.74-2.98,3.27
				c0,0-2.28,2.2-3.73,3.3"/>
			<path class="st3" d="M118.91,115.04c0,0-1.35,1.3-2.13,1.92"/>
			<path class="st2" d="M217.06,106.46l3.59,3.89c0,0,8.37-1.35,10.41-2.04c0,0,1.03-0.28-0.11-0.48c-1.14-0.2-7.58-1.07-10.89-1.3"
				/>
			<path class="st2" d="M213.15,106.36c0,0,2.97,3.62,4.65,5.29"/>
			<path class="st2" d="M227.79,120.44c-5.75,0.07-11.18,0.1-14.97,0.08"/>
			<path class="st2" d="M285.49,104.24c0,0-4.55,7.46-11.15,10.83c-0.66,0.33-1.3,0.64-1.95,0.93"/>
			<path class="st2" d="M244.36,101.97c0,0-54.7,2.98-64.58,3.41c-9.88,0.43-28.42,1.56-41.06,3.41"/>
			<path class="st2" d="M255.51,96.8c0,0,2.63-8.12,2.63-28.29"/>
		</g>
	</g>
	<g>
		<g>
			<path class="st1" d="M16.48,68.6c0,0,0.54,1.54,1.84,1.54c1.3,0,1.42,0,1.42,0s0.42-0.05,0.42-1.56"/>
			<path class="st2" d="M122,68.51c0-0.43-0.35-0.77-0.77-0.77c-0.43,0-0.77,0.35-0.77,0.77c0,0.43,0.34,0.77,0.77,0.77
				C121.65,69.28,122,68.94,122,68.51z"/>
			<path class="st2" d="M280.55,68.51l0.01-3.6c0.04-0.64,0.16-1.32,0.3-1.65c0.06-0.16,0.13-0.3,0.2-0.45
				c0.23-0.5,0.39-0.89,0.46-1.32c0.14-0.89,0.11-1.96-0.09-3.28c-0.02-0.16-0.66-4.97-1.23-7.29c-0.46-1.85-1.4-5.11-2.11-6.49
				c-1.13-2.2-2.59-3.88-4.32-4.21c-0.37-0.07-2.99-0.38-8.8-0.38"/>
			<path class="st2" d="M282.6,67.77c0,0,0.31,0.23,0.67,0.53"/>
			<path class="st3" d="M4.84,68.65"/>
			<path class="st3" d="M98.36,11.84l-0.06-1c0,0,0.06-0.63-0.86-0.63c-0.91,0-0.91,0-0.91,0s-0.54,0.06-1.09,0.43
				c-0.55,0.37-1.09,0.92-1.92,0.86c-0.83-0.06-6.59-0.66-7.9-0.51c0,0-0.41,0.1,0.05,0.18c0,0,6.83,0.48,7.77,0.54
				C94.37,11.76,96.74,11.89,98.36,11.84z"/>
			<path class="st3" d="M93.55,11.69c-0.08,0.53,0.04,1.08-5.49,0.75c-3.45-0.21-5.67-1.11-5.63-1.65c0.04-0.54,2.44-0.61,5.89-0.41
				c2.78,0.16,4.71,0.53,5.15,1.1"/>
			<path class="st2" d="M104.22,19.7"/>
			<path class="st3" d="M98.36,11.84c0.72,1.09,5.86,7.86,5.86,7.86c-4.73,0.9-8.27,3.86-8.27,3.86S81.12,36.44,81.12,68.51"/>
			<path class="st2" d="M34.97,21.12"/>
			<path class="st3" d="M121.24,5.15c0,0-1.95,1.29-2.93,2.29c-2.45,2.49-4.78,6-4.78,6c-0.93,1.39-0.2,2.21-0.2,2.21
				c0.43,0.7,2.19,0.64,2.19,0.64c4.18-0.04,6-0.29,6.42-0.34c0.41-0.06,1.2-1.22,1.2-1.22c2.02-2.99,5.14-8.29,5.38-8.77
				c0.25-0.48-0.01-0.7-0.16-0.84c-0.14-0.14-0.45-0.07-0.45-0.07l-0.05-0.22c0,0-1.01-0.36-2.9-0.36c-1.36,0-2.51,0.25-3.46,0.59
				c-0.39,0.13-0.74,0.29-1.05,0.44c-1.24,0.61-1.9,1.1-1.9,1.1c-2.8,1.98-6.04,6.87-6.04,6.87s-0.75,1.03-0.75,1.77
				c0,0.67,1.15,1.18,1.15,1.18s0.8,0.49,2.98,0.6c3.11,0.16,3.83-0.82,3.83-0.82"/>
			<path class="st2" d="M121.93,15.95c0,0-0.03-0.36,0.57-1.3c0.6-0.95,2.95-4.71,5.6-8.66c0,0,0.32-0.47,0.52-0.36"/>
			<path class="st2" d="M127.81,5.14c0,0-3.99,6-5.84,9.16"/>
			<polyline class="st3" points="98.51,11.85 99.16,11.66 113.9,11.41 			"/>
			<path class="st3" d="M292.67,28.94c0.92,1.83,2.98,8.42,4.01,14.72c1.03,6.3,2.53,10.5,2.53,24.85"/>
			<path class="st3" d="M278.85,16.76"/>
			<path class="st3" d="M125.37,11.33c0,0,27.91,0.08,38.22,0.08c10.31,0,34.89,0.3,37.49,0.19c2.59-0.11,4.39-0.42,6.57-0.84
				c2.18-0.42,3.7-0.72,5.73-0.76c2.02-0.04,26.55-0.13,31.3-0.13c4.75,0,12.6,0.34,15.35,0.63c2.75,0.29,3.93,0.38,5.46,0.95
				c0,0,10.23,3.68,12.82,5.06c2.59,1.38,6.72,4.09,9.31,6.81c2.59,2.71,4.88,5.28,4.88,5.28s4.64,2.29,6.13,10.19
				c1.49,7.9,3.26,14.94,3.26,29.72"/>
			<path class="st3" d="M245.37,9.85c0,0,3.17,1.91,6.87,3.05c3.7,1.15,12.6,3.78,17.14,5.88c4.54,2.1,9.28,4.7,11.84,7.44
				c2.56,2.75,4.35,4.89,5.65,7.6c1.3,2.71,7.06,12.92,7.06,34.68"/>
			<path class="st3" d="M164.22,11.41c0,0,0.34,0.17,0.66,0.69c0.32,0.51,4.09,7.13,4.09,7.13l-0.08,1.14"/>
			<path class="st2" d="M104.24,19.66c0,0,8.19-0.77,12.39-0.88c4.2-0.12,36.12-0.46,52.04,0.54"/>
			<path class="st2" d="M169.16,19.27c0,0,11.49,0.66,21.93,1.56c0,0,47.05,5.3,47.05,7.75c0,2.26-21.62,2.94-34.58,2.82
				c-12.97-0.12-45.84-1.97-45.84-1.97c-4.15-0.23-8.29-0.55-11.36-1.01c-3.09-0.46-5.79-1.09-9.39-1.83
				c-3.61-0.74-31.15-6.99-31.15-6.99"/>
			<path class="st2" d="M174.39,29.24"/>
			<path class="st3" d="M110.79,20.29c25.42-0.98,25.42-1.08,53.49,0.12c1.53,0.07,3.06,0.14,4.58,0.22c0,0,11.32,0.66,22.2,1.58
				c0,0,44.08,4.61,44.08,6.62c0,1.94-29.07,2.07-37.84,1.82c-8.77-0.25-39.41-2.02-39.41-2.02c-3.34-0.17-6.22-0.33-7.57-0.46
				c-3.86-0.34-11.34-1.76-14.82-2.52C132.02,24.89,110.79,20.29,110.79,20.29"/>
			<path class="st3" d="M164.35,20.61c0,0,3.89,3.09,7.56,8.44l0.21,0.34"/>
			<path class="st3" d="M174.13,21.18c0,0,2.93,5.56,3.88,8.46"/>
			<path class="st2" d="M165.15,20.69c0,0,4.39,3.51,7.48,8.32l0.3,0.45"/>
			<path class="st2" d="M173.44,21.11c0,0,2.89,5.5,3.85,8.55"/>
			<path class="st3" d="M148.89,11.7c0,0-0.88-0.02-0.88,0.15c0,0.17,0.57,0.26,1.07,0.36c0.49,0.1,3.57,0.44,5.67,0.44
				c2.1,0,5.32,0.13,5.9,0.11c0.57-0.02,1.05-0.09,1.05-0.32c0-0.23-0.64-0.48-1.42-0.52C159.5,11.89,149.61,11.66,148.89,11.7z"/>
			<path class="st3" d="M227.56,9.95c0,0,0.8,1.49,1.12,2.38c0.31,0.89,0.57,1.69,0.4,3.18c0,0,0.03,0.86-1.32,2.52
				c-1.34,1.66-4.67,5.41-5.67,6.47c0,0-0.49,0.63-0.52,1.2"/>
			<path class="st3" d="M206.37,12.39c0,0-1.44-0.06-1.45,0.17c-0.02,0.23,1.36,0.72,3.4,0.72c2.04,0,7.23-0.02,9.16-0.11
				c0,0,1.09-0.02,1.05-0.38c0,0,0.02-0.48-1.26-0.48C216.14,12.31,207.15,12.4,206.37,12.39"/>
			<path class="st2" d="M227.05,22.94c0,0,27.72,1.27,54.54,7.63"/>
			<path class="st3" d="M102.2,20.8c0,0,16.38,3.36,30.51,7.33c0,0,4.85,1.14,3.78,4.2c-1.07,3.05-4.73,14.72-4.73,36.17"/>
			<path class="st2" d="M90.21,68.53c0-23.21,11.76-41.08,11.76-41.08s2.12-3.89,9.68-2.23c7.56,1.66,15.35,3.55,18.27,4.52
				c2.92,0.97,4.3,2.18,3.15,6.81c-1.15,4.64-2.98,14.09-2.98,21.99c0,0,0,0.43-0.6,0.63c-0.6,0.2-4.38,1.37-5.01,1.63
				c-0.63,0.26-1.46,0.92-1.52,2c-0.06,1.09-0.2,2.46-0.2,2.46s0.09,0.49-0.63,0.71c-0.71,0.23-1.97,0.52-2.29,0.66
				c-0.31,0.14-1,0.51-1,1.86"/>
			<path class="st2" d="M112.48,25.41c0,0-3.66-0.54-5.64-0.03c-0.44,0.12-0.84,0.22-1.23,0.35c-1.35,0.43-2.4,1.06-3.41,2.89
				c-1.29,2.35-10.14,19.84-10.76,34.56c0,0-0.08,0.57-0.3,0.99c-0.23,0.42-0.89,1.55-0.89,2.54c-0.01,1.05-0.02,1.81-0.02,1.81"/>
			<line class="st2" x1="105.98" y1="25.84" x2="132.93" y2="32.1"/>
			<path class="st2" d="M106.59,26.22c0,0-11.44,16.17-11.44,42.28"/>
			<path class="st2" d="M286.03,33.59c0,0,7.29,12.69,7.29,34.92"/>
			<path class="st3" d="M266.36,17.48c0,0,11.19,0.11,16.01,4.12c0,0,7.73,5.5,10.42,15.77c2.43,9.26,4.68,14.41,4.68,31.13"/>
			<path class="st2" d="M287.29,34.63c0,0,2.81,0.29,4.3,0.86l0.8,0.57"/>
			<path class="st1" d="M16.48,68.51c0,0,0.54-1.54,1.84-1.54c1.3,0,1.42,0,1.42,0s0.42,0.05,0.42,1.56"/>
			<path class="st3" d="M247.23,68.51c0,0-0.25-24.02-0.38-29.47c0,0-0.19-2.79,0.44-3.57c0.62-0.78,2.32-1.53,6.45-1.94
				c4.14-0.41,11.78-0.66,14.04-0.53c2.25,0.12,5.51,0.44,8.02,2.88c2.51,2.44,6.16,8.55,7.47,16.2c1.32,7.64,1.45,10.61,1.45,16.43
				"/>
			<path class="st3" d="M255.68,33.46c0,0,4.57,2.13,6.77,4.01c2.19,1.88,3.45,2.76,4.51,6.77c1.06,4.01,3.11,10.54,3.11,24.27"/>
			<path class="st3" d="M264.06,35.07c-0.35,0.18-0.64,0.47-0.69,0.96c-0.01,0.07-0.01,0.15-0.02,0.22
				c-0.11,1.17-0.11,1.85-0.11,1.85"/>
			<path class="st2" d="M274.33,34.84l-8.98-0.03c0,0-0.72-0.03-1.29,0.26"/>
			<path class="st3" d="M263.36,36.25c0,0,0.47-0.41,1.48-0.42c1-0.02,11.08,0.16,11.08,0.16"/>
			<path class="st2" d="M260.62,33.26c0,0,2.5,0.52,4.46,1.11"/>
			<path class="st2" d="M257.11,33.43c0,0,3.84,0.69,6.31,1.39"/>
			<path class="st2" d="M260.01,34.98c0,0,1.64,0.27,2.91,0.66"/>
			<path class="st2" d="M136.48,32.33c0,0,52.1,2.22,110.37,6.71"/>
			<path class="st2" d="M272.92,33.95c0,0,1.61-0.88,3.3-1.23c0,0,1.23-0.23,2.9-0.1c1.67,0.12,7.54,0.9,7.54,0.9"/>
			<path class="st2" d="M247.01,39.04c0,0,3.14,0.26,7.1,0.6c2.93,0.25,8.38,0.71,11.26,0.99"/>
			<path class="st2" d="M254.26,39.67"/>
			<path class="st2" d="M256.95,39.89"/>
			<path class="st2" d="M255.51,40.22c-0.52-0.53-1.49-0.57-1.49-0.57"/>
			<path class="st2" d="M257.09,39.9"/>
			<path class="st2" d="M257.24,39.93c0,0-0.97-0.13-1.72,0.28c0,0,2.63,7.96,2.63,28.14"/>
			<path class="st2" d="M257.32,40.61"/>
			<path class="st2" d="M268.36,12.62c0,0,13.87,4.18,20.05,15.29"/>
			<path class="st2" d="M293.59,29.27c0,0,7.1,12.31,7.1,39.25"/>
			<path class="st2" d="M297.48,67.4c0,0,0.78,0.05,0.78,0.43c0,0.37,0,0.7,0,0.7"/>
			<line class="st4" x1="219.28" y1="25.59" x2="214.98" y2="30.66"/>
			<path class="st3" d="M4.84,68.45"/>
			<path class="st2" d="M181.29,29.95c0,0-1.47-0.16-2.27-2.04c-0.81-1.87-2.51-5.38-3.6-6.91"/>
			<path class="st2" d="M118.59,21.66"/>
			<path class="st2" d="M161.84,22.08"/>
			<path class="st2" d="M166.99,29.08c0,0,0.88-0.07,0.99-0.69c0.12-0.62-0.29-0.95-0.85-1.59c-0.57-0.64-2.31-2.74-2.98-3.27
				c0,0-2.28-2.2-3.73-3.3"/>
			<path class="st3" d="M118.91,21.97c0,0-1.35-1.3-2.13-1.92"/>
			<path class="st2" d="M217.06,30.55l3.59-3.89c0,0,8.37,1.35,10.41,2.04c0,0,1.03,0.28-0.11,0.48c-1.14,0.2-7.58,1.07-10.89,1.3"
				/>
			<path class="st2" d="M213.15,30.66c0,0,2.97-3.62,4.65-5.29"/>
			<path class="st2" d="M227.79,16.58c-5.75-0.07-11.18-0.1-14.97-0.08"/>
			<path class="st2" d="M285.49,32.77c0,0-4.55-7.46-11.15-10.83c-0.66-0.33-1.3-0.64-1.95-0.93"/>
			<path class="st2" d="M244.36,35.05c0,0-54.7-2.98-64.58-3.41c-9.88-0.43-28.42-1.56-41.06-3.41"/>
			<path class="st2" d="M255.51,40.22c0,0,2.63,8.12,2.63,28.29"/>
		</g>
	</g>
	<path class="st2" d="M35.18,115.64"/>
	<path class="st2" d="M17.41,83.4c0,0,22.64,3.21,59.06,3.78"/>
	<path class="st3" d="M36.67,122.2c0.44,0.79,2.06,1.35,2.06,1.35c5.39,2.07,8.96,2.89,9.77,3.12c0.8,0.23,2.12,0.29,2.12,0.29
		s6.84,0,10.99,0c4.16,0,16.86-0.09,19.81-0.09c2.95,0,5.36-0.03,7.69-0.24c2.33-0.21,4.56-0.56,5.68-0.66"/>
	<path class="st3" d="M35.95,122.99"/>
	<path class="st3" d="M37.01,126"/>
	<path class="st3" d="M51.05,126.97c0,0-6.15,0.06-7.58,0c0,0-5.47,0.07-6.45-1.09c0,0-5.1-1.03-10.05-3.67s-7.66-6.48-9.82-9.47
		c-2.16-2.99-5.61-7.32-7.97-14.65"/>
	<path class="st3" d="M11.43,68.51c0,19.27,5.4,29.07,5.82,29.94c0.41,0.87,1.34,1.73,1.94,2.13c0.6,0.4,3.58,2.32,4.72,3.14
		c1.14,0.83,2.34,1.71,3.13,2.49s1.34,1.56,2.9,3.75c1.56,2.18,5.97,8.66,6.82,10.13c0.85,1.47-0.09,2.12-0.09,2.12"/>
	<path class="st3" d="M21.46,102.06c0,0,5.52,10.13,10.91,16.98c0,0,0.47,0.55,1.05,1.04c0.07,0.06,0.13,0.11,0.2,0.17
		c0.32,0.26,0.66,0.48,0.96,0.58c0.92,0.3,1.91,0.48,2.54,0.56"/>
	<path class="st2" d="M24.48,104.14l3.99,6.85c0,0,0.41,0.7,1.34,0.9c0.92,0.21,1.65,0.23,1.65,0.23"/>
	<path class="st2" d="M32.3,113.35l-1.55,0.37c0,0-0.47,0.17,0,0.83s1.72,2.59,4.29,5.59c0,0,0.82,0.79,2.01,0.64"/>
	<path class="st2" d="M27.97,106.02c0,0,17.65,4.3,27.44,5.58s20.19,2.42,32.84,3.39"/>
	<path class="st2" d="M38.55,119.74c0,0,11.87,3.13,25.65,2.76s24.58-2.02,35.88-1.68"/>
	<path class="st5" d="M26.63,118.33"/>
	<path class="st1" d="M8.97,97.29c0,0,4.37,9.9,13.46,18.98c0,0,3.77,4.09,4.69,4.87c0.93,0.78,3.64,2.95,9.26,4.59"/>
	<path class="st5" d="M24.64,120.55"/>
	<path class="st5" d="M28.48,121.5"/>
	<path class="st5" d="M25.53,120.8"/>
	<path class="st5" d="M23.35,117.19"/>
	<path class="st2" d="M44.18,125.41l-0.93,0.07c0,0-0.54,0.09,0.21,0.34c0.75,0.25,2.18,0.73,3.89,1.17"/>
	<path class="st1" d="M23.58,117.52c0,0,3.85,4.42,6.73,4.92s3.99,0.42,6.8,0.54"/>
	<path class="st3" d="M15.64,94.76c0,0,19.69,6.6,24.51,8.03c4.82,1.43,19.7,5.36,29.16,7.12s12.12,2.26,15.55,2.63
		c3.43,0.37,5.44,0.42,10.68,0.54"/>
	<path class="st3" d="M9.18,98.08c0,0-4.34-12.56-4.34-29.52"/>
	<path class="st2" d="M23.19,117.19c0,0,0.09,0.68,0.82,1.49l0.47,0.43c0,0,0.19,0.39-0.13,0.28c-0.59-0.2-1.15-0.47-1.68-1.15
		c-0.53-0.68-0.7-2.35-0.7-2.35"/>
	<path class="st2" d="M18.31,100.49c0,0,6.66,12.36,14.23,20.3c0,0,0.98,1.04,1.51,1.24"/>
	<path class="st2" d="M29.04,121.3c0,0,1.47,0.81,3.35,0.9c1.88,0.09,3.92,0.13,3.92,0.13"/>
	<path class="st3" d="M33.24,119.93l1,1.01c0,0,0.49,0.68,2.14,1.09l0.41,0.06"/>
	<path class="st2" d="M149.5,68.51l0.45,19.04c0,0,0.08,7.26,6.7,6.88c6.63-0.38,50.16-2.67,63.07-3.73
		c10.16-0.83,12.5-7.01,12.8-7.79c0,0,0.98-2.82,1.09-6.44s0-7.96,0-7.96"/>
	<path class="st2" d="M270.26,116.75c0,0-9.7,3.28-24.21,3.51c-14.51,0.23-15.61,0.22-15.61,0.22"/>
	<path class="st2" d="M35.18,21.38"/>
	<path class="st2" d="M17.41,53.62c0,0,22.64-3.21,59.06-3.78"/>
	<path class="st3" d="M36.67,14.81c0.44-0.79,2.06-1.35,2.06-1.35c5.39-2.07,8.96-2.89,9.77-3.12c0.8-0.23,2.12-0.29,2.12-0.29
		s6.84,0,10.99,0c4.16,0,16.86,0.09,19.81,0.09c2.95,0,5.36,0.03,7.69,0.24c2.33,0.21,4.56,0.56,5.68,0.66"/>
	<path class="st3" d="M35.95,14.03"/>
	<path class="st3" d="M37.01,11.02"/>
	<path class="st3" d="M51.05,10.05c0,0-6.15-0.06-7.58,0c0,0-5.47-0.07-6.45,1.09c0,0-5.1,1.03-10.05,3.67s-7.66,6.48-9.82,9.47
		s-5.61,7.32-7.97,14.65"/>
	<path class="st3" d="M11.43,68.51c0-19.27,5.4-29.07,5.82-29.94c0.41-0.87,1.34-1.73,1.94-2.13s3.58-2.32,4.72-3.14
		c1.14-0.83,2.34-1.71,3.13-2.49c0.79-0.77,1.34-1.56,2.9-3.75c1.56-2.18,5.97-8.66,6.82-10.13c0.85-1.47-0.09-2.12-0.09-2.12"/>
	<path class="st3" d="M21.46,34.96c0,0,5.52-10.13,10.91-16.98c0,0,0.47-0.55,1.05-1.04c0.07-0.06,0.13-0.11,0.2-0.17
		c0.32-0.26,0.66-0.48,0.96-0.58c0.92-0.3,1.91-0.48,2.54-0.56"/>
	<path class="st2" d="M24.48,32.88l3.99-6.85c0,0,0.41-0.7,1.34-0.9c0.92-0.21,1.65-0.23,1.65-0.23"/>
	<path class="st2" d="M32.3,23.67l-1.55-0.37c0,0-0.47-0.17,0-0.83c0.47-0.66,1.72-2.59,4.29-5.59c0,0,0.82-0.79,2.01-0.64"/>
	<path class="st2" d="M27.97,31c0,0,17.65-4.3,27.44-5.58S75.6,23,88.25,22.04"/>
	<path class="st2" d="M38.55,17.28c0,0,11.87-3.13,25.65-2.76c13.78,0.38,24.58,2.02,35.88,1.68"/>
	<path class="st5" d="M26.63,18.69"/>
	<path class="st1" d="M8.97,39.72c0,0,4.37-9.9,13.46-18.98c0,0,3.77-4.09,4.69-4.87c0.93-0.78,3.64-2.95,9.26-4.59"/>
	<path class="st5" d="M24.64,16.46"/>
	<path class="st5" d="M28.48,15.51"/>
	<path class="st5" d="M25.53,16.22"/>
	<path class="st5" d="M23.35,19.83"/>
	<path class="st2" d="M44.18,11.6l-0.93-0.07c0,0-0.54-0.09,0.21-0.34c0.75-0.25,2.18-0.73,3.89-1.17"/>
	<path class="st1" d="M23.58,19.49c0,0,3.85-4.42,6.73-4.92c2.88-0.51,3.99-0.42,6.8-0.54"/>
	<path class="st3" d="M15.64,42.25c0,0,19.69-6.6,24.51-8.03s19.7-5.36,29.16-7.12s12.12-2.26,15.55-2.63
		c3.43-0.37,5.44-0.42,10.68-0.54"/>
	<path class="st3" d="M9.18,38.93c0,0-4.34,12.56-4.34,29.52"/>
	<path class="st2" d="M23.19,19.83c0,0,0.09-0.68,0.82-1.49l0.47-0.43c0,0,0.19-0.39-0.13-0.28c-0.59,0.2-1.15,0.47-1.68,1.15
		c-0.53,0.68-0.7,2.35-0.7,2.35"/>
	<path class="st2" d="M18.31,36.52c0,0,6.66-12.36,14.23-20.3c0,0,0.98-1.04,1.51-1.24"/>
	<path class="st2" d="M29.04,15.72c0,0,1.47-0.81,3.35-0.9c1.88-0.09,3.92-0.13,3.92-0.13"/>
	<path class="st3" d="M33.24,17.08l1-1.01c0,0,0.49-0.68,2.14-1.09l0.41-0.06"/>
	<path class="st2" d="M149.5,68.51l0.45-19.04c0,0,0.08-7.26,6.7-6.88c6.63,0.38,50.16,2.67,63.07,3.73
		c10.16,0.83,12.5,7.01,12.8,7.79c0,0,0.98,2.82,1.09,6.44c0.11,3.61,0,7.96,0,7.96"/>
	<path class="st2" d="M270.26,20.27c0,0-9.7-3.28-24.21-3.51c-14.51-0.23-15.61-0.22-15.61-0.22"/>
	<g>
		<path class="st2" d="M85.6,52.62c-1.13,4.87-1.84,10.2-1.84,15.92"/>
		<path class="st1" d="M86.51,49.1c-0.14,0.48-0.27,0.97-0.4,1.46"/>
		<path class="st2" d="M98.53,24.61c-2.26,3.02-6.02,8.67-9.18,16.34"/>
		<path class="st2" d="M104.11,19.71c0,0-1.75,0.51-3.43,2.26"/>
		<path class="st1" d="M104.28,117.28"/>
		<path class="st2" d="M85.15,82.2c-0.86-4.29-1.39-8.91-1.39-13.81"/>
		<path class="st2" d="M86.42,87.5c-0.35-1.24-0.67-2.52-0.96-3.83"/>
		<path class="st2" d="M104.11,117.22c0,0-1.97-0.57-3.74-2.6c-1.22-1.39-8.62-10.4-13.12-24.37"/>
		<path class="st1" d="M81.81,58.03c0,0,7.26-16.21,9.71-20.14l0.57-0.57l0.25,0.08l1.59-3l-0.63-0.36H92.7l-1.43,2.77l-0.09,0.86
			c-4.51,8.1-9.14,18.04-9.14,18.04"/>
		<line class="st6" x1="92.13" y1="37.08" x2="93.37" y2="34.56"/>
		<line class="st6" x1="92.78" y1="34.12" x2="93.27" y2="34.39"/>
		<line class="st6" x1="93.53" y1="34.44" x2="93.75" y2="34.41"/>
		<path class="st1" d="M93.35,34.05C93.61,33.44,99.48,23,99.48,23l0.02-0.07c0,0,0.46-0.83,0.56-0.96c0.1-0.13,0.29-0.07,0.29-0.07
			s0.36,0.16,0.47,0.24c0.11,0.08,0.07,0.23,0.07,0.23c-6.02,9.2-13.88,26.81-13.88,26.81s-0.11,0.09-0.34,0
			c-0.23-0.09-0.57-0.3-0.57-0.3"/>
		<polyline class="st2" points="86.66,47.7 87.25,47.95 87.37,48.08 		"/>
		<line class="st6" x1="99.56" y1="22.98" x2="100.15" y2="23.32"/>
		<path class="st1" d="M83.57,89.15l1.19-5.25L85.29,84l0.23,0.27c0,0-0.76,4.69-0.96,8.64"/>
		<line class="st2" x1="85.25" y1="84.2" x2="84.12" y2="91.15"/>
		<path class="st1" d="M84.9,83.89c0,0,0.29-1.64,0.38-2.58c0.1-0.93,0.21-7.53,0.17-7.83c-0.04-0.31-0.44-1-0.44-1l-0.04-3.11
			l0.36-0.15l0.8,0.04l0.06,3.3l-0.31,0.33c0,0-0.1,0.27-0.1,0.5c0,0.23,0.06,6.54-0.1,7.9c-0.15,1.36-0.32,2.73-0.32,2.73"/>
		<line class="st6" x1="85.12" y1="69.42" x2="85.73" y2="69.43"/>
		<line class="st6" x1="86.04" y1="69.33" x2="85.94" y2="69.39"/>
		<line class="st6" x1="85.86" y1="69.52" x2="85.88" y2="72.67"/>
		<path class="st1" d="M85.43,69.07l0.21-16.98l-0.07-0.2l0.01-0.91c0,0,0.14-0.32,0.4-0.32c0.26,0,0.4,0.09,0.52,0.23
			c0.11,0.14,0.1,0.86,0.1,1l-0.1,0.12c0,0-0.23,13.07-0.17,17.43c0.06,4.36,0.52,12.24,0.66,14.33c0.14,2.09,0.47,4.92,0.47,4.92
			l0.09,0.15l0.1,1.03c0,0-0.05,0.23-0.2,0.26c-0.14,0.03-0.66-0.03-0.66-0.03s-0.11-0.17-0.14-0.34c-0.03-0.17-0.08-0.91-0.08-0.91
			l0.03-0.22L85.8,78.47"/>
		<line class="st6" x1="86.63" y1="88.81" x2="87.35" y2="88.82"/>
		<line class="st6" x1="85.73" y1="51.96" x2="86.42" y2="51.95"/>
		<path class="st1" d="M104.28,20"/>
	</g>
</g>
</svg>
