<?xml version="1.0" encoding="UTF-8" standalone="no"?>
<!-- Generator: Adobe Illustrator 28.1.0, SVG Export Plug-In . SVG Version: 6.00 Build 0)  -->

<svg
   version="1.1"
   id="Ebene_1"
   x="0px"
   y="0px"
   viewBox="0 0 458.91422 175.03872"
   xml:space="preserve"
   sodipodi:docname="taycan-model.svg"
   width="458.91425"
   height="175.03873"
   inkscape:version="1.3 (0e150ed, 2023-07-21)"
   xmlns:inkscape="http://www.inkscape.org/namespaces/inkscape"
   xmlns:sodipodi="http://sodipodi.sourceforge.net/DTD/sodipodi-0.dtd"
   xmlns="http://www.w3.org/2000/svg"
   xmlns:svg="http://www.w3.org/2000/svg"><defs
   id="defs152" /><sodipodi:namedview
   id="namedview152"
   pagecolor="#ffffff"
   bordercolor="#000000"
   borderopacity="0.25"
   inkscape:showpageshadow="2"
   inkscape:pageopacity="0.0"
   inkscape:pagecheckerboard="0"
   inkscape:deskcolor="#d1d1d1"
   inkscape:zoom="0.87323131"
   inkscape:cx="478.68187"
   inkscape:cy="86.460482"
   inkscape:window-width="1312"
   inkscape:window-height="776"
   inkscape:window-x="366"
   inkscape:window-y="25"
   inkscape:window-maximized="0"
   inkscape:current-layer="Ebene_1"><inkscape:page
     x="0"
     y="0"
     width="458.91422"
     height="175.03873"
     id="page152"
     margin="0 0 0 0"
     bleed="0" /></sodipodi:namedview>&#10;<style
   type="text/css"
   id="style1">&#10;	.st0{fill:none;stroke:#000000;stroke-width:0.8504;stroke-linecap:round;stroke-linejoin:round;stroke-miterlimit:10;}&#10;	.st1{fill:none;stroke:#000000;stroke-width:0.2835;stroke-linecap:round;stroke-linejoin:round;stroke-miterlimit:10;}&#10;	.st2{fill:none;stroke:#000000;stroke-width:0.4252;stroke-linecap:round;stroke-linejoin:round;stroke-miterlimit:10;}&#10;	.st3{fill:none;stroke:#000000;stroke-width:0.5669;stroke-linecap:round;stroke-linejoin:round;stroke-miterlimit:10;}&#10;	.st4{fill:none;stroke:#000000;stroke-width:0.1984;stroke-linecap:round;stroke-linejoin:round;stroke-miterlimit:10;}&#10;</style>&#10;<g
   id="g152"
   transform="matrix(1.3820996,0,0,1.319781,33.763448,-3.3272684)">&#10;	<path
   class="st0"
   d="m 298.43,39.14 c -0.95,-5.01 -3.16,-7.76 -4.65,-9.09 -0.01,-0.01 -0.01,-0.02 -0.01,-0.02 -0.85,-0.76 -1.46,-1.05 -1.46,-1.05 v -0.01 c -0.87,-1.61 -1.82,-2.51 -4.14,-4.84 -1.38,-1.39 -3.36,-2.98 -5.31,-4.36 -1.52,-1.06 -3.01,-2 -4.18,-2.62 -2.67,-1.41 -11.81,-4.73 -13.34,-5.3 -1.52,-0.57 -2.7,-0.66 -5.45,-0.95 -2.6,-0.28 -9.8,-0.6 -14.58,-0.62 -0.26,-0.01 -0.5,-0.01 -0.74,-0.01 -2.43,0 -9.99,0.03 -17.09,0.05 -6.8,0.03 -13.17,0.07 -14.16,0.08 -2.02,0.04 -3.55,0.35 -5.72,0.77 -2.17,0.41 -3.97,0.72 -6.56,0.84 -2.54,0.11 -26.17,-0.19 -36.8,-0.2 -0.22,0 -0.43,0 -0.63,0 -10.29,0 -38.15,-0.07 -38.15,-0.07 l -0.05,-0.03 c 1.56,-2.51 3.02,-5.02 3.19,-5.34 0.06,-0.13 0.09,-0.24 0.1,-0.33 0.01,-0.27 -0.16,-0.41 -0.26,-0.52 C 128.3,5.38 128,5.46 128,5.46 l -0.06,-0.22 c 0,0 -1.01,-0.36 -2.9,-0.36 -1.35,0 -2.51,0.25 -3.45,0.58 -0.09,0.03 -0.18,0.07 -0.27,0.11 -0.28,0.1 -0.54,0.22 -0.78,0.33 -1.24,0.61 -1.89,1.1 -1.89,1.1 -1.62,1.15 -3.4,3.27 -4.59,4.85 l -0.05,-0.04 -14.72,0.25 -0.64,0.19 -0.11,0.07 C 98.52,12.29 98.5,12.27 98.49,12.25 l -0.05,-1.01 c 0,0 0.05,-0.63 -0.86,-0.63 -0.91,0 -0.91,0 -0.91,0 0,0 -0.55,0.06 -1.09,0.43 -0.13,0.09 -0.27,0.19 -0.41,0.29 l -0.01,-0.01 c -1.12,-0.1 -3.85,-0.57 -6.17,-0.78 -2.33,-0.21 -4.73,-0.24 -7.67,-0.24 -2.95,0 -15.61,-0.09 -19.76,-0.09 -3.52,0 -8.97,0 -10.53,0 0,0 -1.8,-0.02 -3.68,-0.03 -1.59,0 -3.23,0 -3.88,0.03 -1.43,0.07 -4.58,0.39 -6.44,0.97 -1.85,0.57 -3.68,1.07 -5.3,1.68 -1.63,0.6 -4.66,1.3 -7.76,3.75 -3.03,1.73 -4.86,4.13 -7.64,7.81 -2.78,3.68 -6.08,9.31 -6.08,9.31 C 9.72,34.67 9.44,35.51 9.29,36.19 9.28,36.2 9.28,36.21 9.28,36.21 9.05,37.27 9.13,37.93 9.13,37.93 8.7,38.94 8.26,40.22 7.92,41.77 6.95,46.26 5.08,52.8 5.07,68.55 c 0,0.02 0,0.05 0,0.07 0.01,15.75 1.88,22.29 2.85,26.78 0.34,1.54 0.77,2.83 1.21,3.84 0,0 -0.09,0.67 0.15,1.73 0,0 0,0.01 0.01,0.02 0.15,0.68 0.44,1.52 0.96,2.45 0,0 3.3,5.63 6.08,9.31 2.78,3.68 4.61,6.09 7.64,7.81 3.1,2.46 6.13,3.16 7.76,3.76 1.62,0.6 3.45,1.1 5.3,1.67 1.86,0.58 5.01,0.91 6.44,0.97 0.65,0.03 2.29,0.03 3.88,0.03 1.88,-0.01 3.68,-0.03 3.68,-0.03 1.56,0 7.01,0 10.53,0 4.15,0 16.81,-0.09 19.76,-0.09 2.94,0 5.34,-0.02 7.67,-0.23 2.32,-0.22 5.05,-0.69 6.17,-0.79 l 0.01,-0.01 c 0.14,0.1 0.28,0.2 0.41,0.29 0.54,0.37 1.09,0.43 1.09,0.43 0,0 0,0 0.91,0 0.91,0 0.86,-0.63 0.86,-0.63 l 0.05,-1 c 0.02,-0.02 0.03,-0.05 0.05,-0.08 l 0.11,0.07 0.64,0.19 14.72,0.25 0.05,-0.04 c 1.19,1.58 2.97,3.7 4.59,4.85 0,0 0.65,0.49 1.89,1.11 0.24,0.12 0.5,0.23 0.79,0.33 0.08,0.04 0.17,0.07 0.26,0.1 0.94,0.34 2.1,0.58 3.45,0.58 1.89,0 2.9,-0.36 2.9,-0.36 l 0.06,-0.21 c 0,0 0.3,0.07 0.44,-0.07 0.1,-0.11 0.27,-0.26 0.26,-0.52 -0.01,-0.09 -0.04,-0.2 -0.1,-0.32 -0.17,-0.33 -1.63,-2.84 -3.19,-5.35 l 0.05,-0.03 c 0,0 27.86,-0.07 38.15,-0.07 0.2,0 0.41,0 0.63,0 10.63,-0.01 34.26,-0.31 36.8,-0.19 2.59,0.11 4.39,0.42 6.56,0.84 2.17,0.41 3.7,0.72 5.72,0.76 0.99,0.02 7.36,0.05 14.16,0.08 7.1,0.03 14.66,0.05 17.09,0.05 0.24,0 0.48,0 0.73,0 h 0.01 c 4.78,-0.03 11.98,-0.35 14.58,-0.63 2.75,-0.28 3.93,-0.38 5.45,-0.95 1.53,-0.57 10.67,-3.89 13.34,-5.3 1.13,-0.6 2.56,-1.49 4.02,-2.51 0,0 0.01,-0.01 0.04,-0.03 1.98,-1.39 4.02,-3.01 5.43,-4.43 2.32,-2.33 3.26,-3.24 4.13,-4.84 h 0.01 c 0,0 0.61,-0.3 1.46,-1.07 0,0 0,0 0.01,-0.01 1.49,-1.33 3.7,-4.09 4.65,-9.1 1.48,-7.88 3.25,-15.95 3.25,-29.42 0,-0.01 0,-0.03 0,-0.04 0,-13.48 -1.77,-21.55 -3.25,-29.43 z"
   id="path1" />&#10;	<path
   class="st1"
   d="m 85.7,52.47 c -1.13,4.85 -1.84,10.17 -1.84,15.87"
   id="path2" />&#10;	<path
   class="st1"
   d="m 86.61,48.96 c -0.14,0.48 -0.27,0.97 -0.4,1.46"
   id="path3" />&#10;	<path
   class="st2"
   d="m 98.59,24.53 c -2.25,3.01 -6,8.65 -9.15,16.3"
   id="path4" />&#10;	<path
   class="st3"
   d="m 104.15,19.94 c 0,0 -1.95,0.37 -3.42,1.97"
   id="path5" />&#10;	<path
   class="st1"
   d="m 90.34,68.35 c 0,-23.17 11.74,-41.01 11.74,-41.01 0,0 2.12,-3.89 9.66,-2.23 7.55,1.66 15.32,3.54 18.24,4.52 2.91,0.97 4.29,2.17 3.15,6.8 -1.14,4.63 -2.97,14.07 -2.97,21.95 0,0 0,0.43 -0.6,0.63 -0.6,0.2 -4.37,1.37 -5,1.63 -0.63,0.26 -1.46,0.91 -1.51,2 -0.06,1.09 -0.2,2.46 -0.2,2.46 0,0 0.09,0.49 -0.63,0.71 -0.71,0.23 -1.97,0.51 -2.29,0.66 -0.31,0.14 -1,0.45 -1,1.8"
   id="path6" />&#10;	<path
   class="st1"
   d="m 112.57,25.3 c 0,0 -3.66,-0.54 -5.63,-0.03 -0.44,0.11 -0.84,0.22 -1.23,0.34 -1.35,0.43 -2.4,1.06 -3.4,2.89 -1.29,2.34 -10.12,19.81 -10.75,34.5 0,0 -0.08,0.57 -0.3,0.99 -0.23,0.42 -0.84,1.45 -0.84,2.44 0,0.99 0,1.83 0,1.83"
   id="path7" />&#10;	<line
   class="st1"
   x1="105.71"
   y1="25.620001"
   x2="132.99001"
   y2="31.98"
   id="line7" />&#10;	<path
   class="st1"
   d="m 106.83,25.88 c 0,0 -11.56,16.49 -11.56,42.56"
   id="path8" />&#10;	<path
   class="st3"
   d="m 227.57,68.33 c 0,-23.5 -1.14,-31.96 -1.14,-31.96 0,0 0.08,-1.55 2.26,-1.55 2.17,0 15.52,0.56 31.76,2.34 0,0 5.11,0.57 6.56,0.99 1.45,0.42 3.85,0.99 5.07,4.5 1.22,3.51 4.42,11.74 4.42,25.61"
   id="path9" />&#10;	<path
   class="st1"
   d="M 240.05,68.31 V 56.53 c 0,0 0,-1.53 -1.68,-2.25 -1.68,-0.73 -5.45,-2.25 -5.45,-2.25 0,0 -0.72,-0.31 -0.8,-1.49 -0.08,-1.18 -0.23,-6.6 -0.61,-10.52 0,0 -0.31,-2.17 1.68,-2.1 1.98,0.08 9.79,0.53 21.38,1.56 0,0 2.13,0.27 2.86,2.52 0.72,2.25 4.04,12.37 4.04,26.26"
   id="path10" />&#10;	<path
   class="st3"
   d="m 260.44,37.17 c 0,0 5.89,10.64 5.89,31.05"
   id="path11" />&#10;	<path
   class="st3"
   d="m 260.47,37 v -0.51 c 0,0 0.03,-0.29 0.37,-0.74 0.34,-0.46 2.46,-2.66 3.03,-3.14 0.57,-0.48 1.86,-1.23 3.72,-1.17 1.86,0.06 10.75,0.69 17.89,1.54 l 0.73,0.19"
   id="path12" />&#10;	<path
   class="st1"
   d="m 273.2,31.96 c 0,0 7.79,12.44 7.79,36.38"
   id="path13" />&#10;	<path
   class="st3"
   d="m 98.47,124.78 -0.06,1 c 0,0 0.06,0.63 -0.86,0.63 -0.91,0 -0.91,0 -0.91,0 0,0 -0.54,-0.06 -1.08,-0.43 -0.55,-0.37 -1.09,-0.92 -1.92,-0.86 -0.83,0.06 -6.57,0.66 -7.89,0.51 0,0 -0.41,-0.1 0.05,-0.18 0,0 6.82,-0.48 7.76,-0.53 0.93,-0.05 3.3,-0.19 4.91,-0.14 z"
   id="path14" />&#10;	<path
   class="st1"
   d="m 95.44,124.69 c -0.08,-0.52 -1.49,-0.87 -7.01,-0.53 -3.45,0.21 -6.21,0.86 -6.17,1.4 0.04,0.54 2.86,0.76 6.3,0.56 2.77,-0.16 4.75,-0.45 5.86,-0.77"
   id="path15" />&#10;	<path
   class="st1"
   d="M 104.33,116.94"
   id="path16" />&#10;	<path
   class="st3"
   d="m 98.47,124.78 c 0.72,-1.08 5.85,-7.84 5.85,-7.84 -4.72,-0.9 -8.25,-3.85 -8.25,-3.85 0,0 -14.8,-12.69 -14.8,-44.71"
   id="path17" />&#10;	<path
   class="st1"
   d="m 95.83,112.98 c 0,0 -8.35,-0.11 -11.24,-0.57 -2.9,-0.46 -18.41,-3.03 -30.42,-6.12 -12,-3.09 -22.47,-6.4 -27.1,-8 -4.63,-1.6 -9.46,-3.12 -10.95,-3.66"
   id="path18" />&#10;	<path
   class="st1"
   d="M 35.19,115.52"
   id="path19" />&#10;	<path
   class="st3"
   d="m 121.32,131.46 c 0,0 -1.94,-1.29 -2.93,-2.29 -2.45,-2.48 -4.77,-5.99 -4.77,-5.99 -0.93,-1.39 -0.2,-2.2 -0.2,-2.2 0.43,-0.7 2.19,-0.65 2.19,-0.65 4.18,0.04 5.99,0.29 6.41,0.35 0.41,0.06 1.2,1.21 1.2,1.21 2.01,2.99 5.13,8.28 5.37,8.76 0.24,0.49 -0.01,0.7 -0.16,0.84 -0.14,0.14 -0.44,0.07 -0.44,0.07 l -0.06,0.22 c 0,0 -1,0.36 -2.9,0.36 -1.35,0 -2.51,-0.25 -3.45,-0.58 -0.39,-0.13 -0.73,-0.28 -1.05,-0.44 -1.24,-0.61 -1.89,-1.1 -1.89,-1.1 -2.79,-1.98 -6.03,-6.85 -6.03,-6.85 0,0 -0.74,-1.03 -0.74,-1.77 0,-0.66 1.14,-1.17 1.14,-1.17 0,0 0.8,-0.49 2.97,-0.6 3.1,-0.16 3.83,0.82 3.83,0.82"
   id="path20" />&#10;	<path
   class="st1"
   d="m 122,120.68 c 0,0 -0.03,0.36 0.57,1.3 0.6,0.94 2.95,4.7 5.59,8.65 0,0 0.31,0.47 0.52,0.36"
   id="path21" />&#10;	<path
   class="st1"
   d="m 127.88,131.47 c 0,0 -3.99,-5.99 -5.83,-9.15"
   id="path22" />&#10;	<polyline
   class="st3"
   points="98.63,124.77 99.28,124.96 113.99,125.21  "
   id="polyline22" />&#10;	<path
   class="st3"
   d="m 125.44,125.29 c 0,0 27.86,-0.08 38.15,-0.08 10.29,0 34.83,-0.3 37.43,-0.19 2.59,0.12 4.38,0.42 6.56,0.84 2.17,0.42 3.7,0.72 5.72,0.76 2.02,0.04 26.51,0.13 31.25,0.13 4.75,0 12.58,-0.34 15.32,-0.63 2.74,-0.29 3.92,-0.38 5.45,-0.95 1.53,-0.57 10.67,-3.88 13.34,-5.3 2.67,-1.41 7.04,-4.51 9.49,-6.98 2.48,-2.49 3.39,-3.35 4.31,-5.18 0.92,-1.83 2.85,-8.43 4,-14.69 1.03,-5.6 2.21,-14.21 2.21,-24.6"
   id="path23" />&#10;	<path
   class="st3"
   d="m 292.29,108.06 c 0,0 4.63,-2.29 6.12,-10.18 1.49,-7.89 3.26,-15.97 3.26,-29.46"
   id="path24" />&#10;	<path
   class="st3"
   d="m 245.24,126.77 c 0,0 3.16,-1.9 6.86,-3.05 3.7,-1.15 12.58,-3.77 17.11,-5.87 4.53,-2.09 9.26,-4.69 11.82,-7.43 2.55,-2.75 4.34,-4.88 5.64,-7.59 1.3,-2.71 6.75,-12.69 6.75,-34.42"
   id="path25" />&#10;	<path
   class="st3"
   d="m 164.22,125.21 c 0,0 0.34,-0.17 0.66,-0.69 0.31,-0.51 4.09,-7.12 4.09,-7.12 l -0.08,-1.14"
   id="path26" />&#10;	<path
   class="st1"
   d="m 104.52,116.98 c 0,0 8,0.76 12.2,0.88 4.19,0.12 36.06,0.46 51.95,-0.53"
   id="path27" />&#10;	<path
   class="st1"
   d="m 105.91,117.04 c 0,0 27.5,-6.23 31.1,-6.98 3.6,-0.74 6.29,-1.37 9.38,-1.83 9.19,-1.36 27.9,-1.54 27.9,-1.54 22.01,-0.69 38.51,-0.04 38.51,-0.04 0,0 19.63,0.3 19.63,2.06 0,1.37 -7.24,2.63 -10.71,3.2 -3.47,0.57 -11.28,1.87 -22.64,3.12 -11.36,1.26 -29.92,2.33 -29.92,2.33"
   id="path28" />&#10;	<path
   class="st1"
   d="M 174.38,107.41"
   id="path29" />&#10;	<path
   class="st3"
   d="m 110.88,116.35 c 0,0 26.57,1.02 53.4,-0.13 1.52,-0.07 3.05,-0.14 4.57,-0.22 0,0 23.56,-1.37 35.33,-2.92 0,0 25.46,-2.67 25.46,-4.42 0,-1.22 -22.91,-1.41 -22.91,-1.41 0,0 -14.86,0.15 -32.09,0.15 -4.42,0 -20.47,0.72 -24.32,1.07 -3.85,0.34 -11.32,1.75 -14.79,2.52 -3.46,0.77 -24.65,5.36 -24.65,5.36 l -3.77,0.86 -2.78,-0.27"
   id="path30" />&#10;	<path
   class="st3"
   d="m 164.36,116.02 c 0,0 3.89,-3.09 7.55,-8.42"
   id="path31" />&#10;	<path
   class="st3"
   d="m 174.11,115.46 c 0,0 2.71,-5.03 3.66,-7.93"
   id="path32" />&#10;	<path
   class="st1"
   d="m 165.16,115.95 c 0,0 4.38,-3.51 7.47,-8.31"
   id="path33" />&#10;	<path
   class="st1"
   d="m 173.43,115.53 c 0,0 2.71,-4.88 3.66,-7.93"
   id="path34" />&#10;	<path
   class="st1"
   d="m 136.84,104.25 c 0,0 20.2,-1.15 34.53,-1.68 14.33,-0.53 49.24,-1.99 54.43,-2.29"
   id="path35" />&#10;	<path
   class="st3"
   d="m 148.92,124.93 c 0,0 -0.88,0.01 -0.88,-0.16 0,-0.17 0.57,-0.26 1.07,-0.36 0.5,-0.1 3.56,-0.44 5.66,-0.44 2.1,0 5.32,-0.13 5.89,-0.12 0.57,0.02 1.05,0.1 1.05,0.33 0,0.23 -0.63,0.47 -1.42,0.51 -0.78,0.04 -10.65,0.27 -11.37,0.24 z"
   id="path36" />&#10;	<path
   class="st3"
   d="m 227.46,126.67 c 0,0 0.8,-1.49 1.11,-2.37 0.31,-0.89 0.57,-1.68 0.4,-3.17 0,0 0.03,-0.86 -1.31,-2.51 -1.34,-1.66 -4.66,-5.41 -5.66,-6.46 0,0 -0.49,-0.63 -0.52,-1.2"
   id="path37" />&#10;	<path
   class="st3"
   d="m 206.3,124.24 c 0,0 -1.43,0.06 -1.45,-0.17 -0.02,-0.23 1.35,-0.72 3.39,-0.72 2.04,0 7.22,0.02 9.15,0.12 0,0 1.09,0.02 1.05,0.38 0,0 0.02,0.48 -1.26,0.48 -1.12,-0.01 -10.1,-0.11 -10.88,-0.09"
   id="path38" />&#10;	<path
   class="st3"
   d="m 102.3,115.84 c 0,0 16.35,-3.35 30.46,-7.32 0,0 4.84,-1.14 3.77,-4.19 -1.07,-3.05 -4.73,-14.63 -4.73,-36.06"
   id="path39" />&#10;	<path
   class="st1"
   d="M 86.52,87.25 C 84.93,81.57 83.86,75.16 83.86,68.19"
   id="path40" />&#10;	<path
   class="st1"
   d="m 104.15,116.88 c 0,0 -1.96,-0.57 -3.73,-2.59 -1.22,-1.39 -8.59,-10.37 -13.08,-24.3"
   id="path41" />&#10;	<path
   class="st1"
   d="m 90.34,68.19 c 0,23.17 11.74,41.01 11.74,41.01 0,0 2.12,3.89 9.66,2.23 7.55,-1.66 15.32,-3.54 18.24,-4.52 2.91,-0.97 4.29,-2.17 3.15,-6.8 -1.14,-4.63 -2.97,-14.07 -2.97,-21.96 0,0 0,-0.43 -0.6,-0.63 -0.6,-0.2 -4.37,-1.38 -5,-1.63 -0.63,-0.26 -1.46,-0.91 -1.51,-2 -0.06,-1.09 -0.2,-2.46 -0.2,-2.46 0,0 0.09,-0.48 -0.63,-0.71 -0.71,-0.23 -1.97,-0.51 -2.29,-0.66 -0.31,-0.15 -1,-0.46 -1,-1.8"
   id="path42" />&#10;	<path
   class="st1"
   d="m 112.57,111.23 c 0,0 -3.66,0.54 -5.63,0.03 -0.44,-0.11 -0.84,-0.22 -1.23,-0.34 -1.35,-0.43 -2.4,-1.06 -3.4,-2.88 -1.29,-2.35 -10.12,-19.81 -10.75,-34.5 0,0 -0.08,-0.57 -0.3,-0.99 -0.23,-0.42 -0.84,-1.45 -0.84,-2.44 0,-0.99 0,-1.83 0,-1.83"
   id="path43" />&#10;	<line
   class="st1"
   x1="105.71"
   y1="110.92"
   x2="132.99001"
   y2="104.56"
   id="line43" />&#10;	<path
   class="st1"
   d="m 106.84,110.65 c 0,0 -11.57,-16.14 -11.57,-42.21"
   id="path44" />&#10;	<path
   class="st3"
   d="m 227.57,68.21 c 0,23.5 -1.14,31.96 -1.14,31.96 0,0 0.08,1.54 2.26,1.54 2.17,0 15.52,-0.55 31.76,-2.34 0,0 5.11,-0.57 6.56,-0.99 1.45,-0.42 3.85,-0.99 5.07,-4.5 1.22,-3.51 4.42,-11.74 4.42,-25.61"
   id="path45" />&#10;	<path
   class="st1"
   d="m 240.05,68.23 v 11.78 c 0,0 0,1.53 -1.68,2.25 -1.68,0.72 -5.45,2.25 -5.45,2.25 0,0 -0.72,0.3 -0.8,1.49 -0.08,1.18 -0.23,6.59 -0.61,10.52 0,0 -0.31,2.17 1.68,2.1 1.98,-0.08 9.79,-0.53 21.38,-1.56 0,0 2.13,-0.27 2.86,-2.52 0.72,-2.25 4.04,-12.37 4.04,-26.26"
   id="path46" />&#10;	<path
   class="st3"
   d="m 260.44,99.37 c 0,0 5.89,-10.64 5.89,-31.04"
   id="path47" />&#10;	<path
   class="st1"
   d="m 234.64,68.19 v 13.65 c 0,0 0,0.45 0.53,0.3 0.53,-0.15 2.56,-0.95 2.56,-0.95 0,0 0.99,-0.57 0.99,-1.91 0,-1.33 0,-11.05 0,-11.05"
   id="path48" />&#10;	<path
   class="st3"
   d="m 260.47,99.54 v 0.52 c 0,0 0.03,0.29 0.37,0.74 0.34,0.45 2.46,2.66 3.03,3.14 0.57,0.48 1.86,1.23 3.72,1.17 1.86,-0.06 10.75,-0.69 17.89,-1.54 l 0.89,-0.23"
   id="path49" />&#10;	<path
   class="st1"
   d="m 273.2,104.57 c 0,0 7.79,-12.45 7.79,-36.38"
   id="path50" />&#10;	<path
   class="st1"
   d="m 285.83,103.07 c 0,0 6.97,-12.46 6.97,-34.65"
   id="path51" />&#10;	<path
   class="st1"
   d="m 287.09,102.03 c 0,0 2.8,-0.29 4.29,-0.86 l 1.02,-0.73"
   id="path52" />&#10;	<path
   class="st1"
   d="m 296.98,69.31 c 0,0 0.63,-0.02 0.63,-0.39 0,-0.37 0,-0.5 0,-0.5"
   id="path53" />&#10;	<path
   class="st1"
   d="m 144.07,84.49 c 0,0 33.25,1.16 78.14,-1.12"
   id="path54" />&#10;	<path
   class="st1"
   d="m 17.46,83.37 c 0,0 22.58,3.2 58.89,3.77"
   id="path55" />&#10;	<path
   class="st2"
   d="m 81.92,57.86 c 0,0 7.24,-16.16 9.68,-20.09 l 0.57,-0.57 0.25,0.08 1.58,-2.99 -0.63,-0.36 h -0.59 l -1.43,2.76 -0.09,0.86 c -4.5,8.08 -9.11,17.99 -9.11,17.99"
   id="path56" />&#10;	<line
   class="st2"
   x1="92.209999"
   y1="36.98"
   x2="93.449997"
   y2="34.459999"
   id="line56" />&#10;	<line
   class="st2"
   x1="92.849998"
   y1="34.02"
   x2="93.349998"
   y2="34.290001"
   id="line57" />&#10;	<line
   class="st2"
   x1="93.599998"
   y1="34.34"
   x2="93.830002"
   y2="34.310001"
   id="line58" />&#10;	<path
   class="st2"
   d="m 93.42,33.95 c 0.26,-0.61 6.11,-11.02 6.11,-11.02 l 0.02,-0.07 c 0,0 0.46,-0.83 0.56,-0.96 0.1,-0.13 0.29,-0.07 0.29,-0.07 0,0 0.36,0.16 0.47,0.24 0.11,0.08 0.07,0.23 0.07,0.23 -6,9.18 -13.84,26.73 -13.84,26.73 0,0 -0.11,0.09 -0.34,0 -0.23,-0.09 -0.57,-0.3 -0.57,-0.3"
   id="path58" />&#10;	<polyline
   class="st4"
   points="86.76,47.56 87.34,47.81 87.46,47.94  "
   id="polyline58" />&#10;	<line
   class="st4"
   x1="99.620003"
   y1="22.91"
   x2="100.2"
   y2="23.25"
   id="line59" />&#10;	<path
   class="st2"
   d="m 83.67,88.89 1.18,-5.24 0.53,0.11 0.23,0.27 c 0,0 -0.76,4.67 -0.95,8.62"
   id="path59" />&#10;	<line
   class="st4"
   x1="85.349998"
   y1="83.949997"
   x2="84.220001"
   y2="90.889999"
   id="line60" />&#10;	<g
   id="g63">&#10;		<path
   class="st2"
   d="m 85,83.65 c 0,0 0.28,-1.64 0.38,-2.57 0.09,-0.93 0.21,-7.51 0.17,-7.81 -0.04,-0.3 -0.44,-0.99 -0.44,-0.99 l -0.04,-3.1 0.36,-0.15 0.8,0.04 0.06,3.29 -0.3,0.33 c 0,0 -0.1,0.27 -0.1,0.49 0,0.23 0.06,6.52 -0.1,7.87 -0.15,1.35 -0.32,2.73 -0.32,2.73"
   id="path60" />&#10;		<line
   class="st2"
   x1="85.220001"
   y1="69.220001"
   x2="85.830002"
   y2="69.230003"
   id="line61" />&#10;		<line
   class="st2"
   x1="86.139999"
   y1="69.129997"
   x2="86.029999"
   y2="69.190002"
   id="line62" />&#10;		<line
   class="st4"
   x1="85.949997"
   y1="69.32"
   x2="85.970001"
   y2="72.459999"
   id="line63" />&#10;		<path
   class="st2"
   d="m 85.53,68.87 0.21,-16.93 -0.07,-0.2 0.01,-0.9 c 0,0 0.14,-0.32 0.4,-0.32 0.26,0 0.4,0.09 0.52,0.23 0.11,0.14 0.1,0.86 0.1,1 l -0.1,0.12 c 0,0 -0.23,13.03 -0.17,17.38 0.06,4.35 0.52,12.2 0.66,14.29 0.14,2.09 0.47,4.91 0.47,4.91 l 0.09,0.15 0.1,1.03 c 0,0 -0.05,0.23 -0.2,0.26 -0.14,0.03 -0.66,-0.03 -0.66,-0.03 0,0 -0.11,-0.17 -0.14,-0.34 -0.03,-0.17 -0.08,-0.91 -0.08,-0.91 L 86.7,88.39 85.9,78.25"
   id="path63" />&#10;	</g>&#10;	<line
   class="st1"
   x1="86.730003"
   y1="88.550003"
   x2="87.440002"
   y2="88.57"
   id="line64" />&#10;	<line
   class="st4"
   x1="85.830002"
   y1="51.810001"
   x2="86.519997"
   y2="51.799999"
   id="line65" />&#10;	<path
   class="st2"
   d="m 16.21,68.42 c 0,0 0.54,1.54 1.83,1.54 1.3,0 1.42,0 1.42,0 0,0 0.42,-0.05 0.42,-1.55"
   id="path65" />&#10;	<path
   class="st2"
   d="m 16.21,68.33 c 0,0 0.54,-1.54 1.83,-1.54 1.3,0 1.42,0 1.42,0 0,0 0.42,0.05 0.42,1.56"
   id="path66" />&#10;	<path
   class="st1"
   d="m 122.07,68.27 c 0,0.43 -0.34,0.77 -0.77,0.77 -0.43,0 -0.77,-0.34 -0.77,-0.77 0,-0.43 0.35,-0.77 0.77,-0.77 0.43,0 0.77,0.34 0.77,0.77 z"
   id="path67" />&#10;	<path
   class="st1"
   d="m 173.43,119.51 c 0,0 19.89,1.25 53,1.22"
   id="path68" />&#10;	<path
   class="st1"
   d="m 230.55,120.74 c 0,0 24.93,-0.1 41,-5.21"
   id="path69" />&#10;	<path
   class="st1"
   d="m 227.1,113.86 c 11.58,-1.17 29.96,-3.62 56.47,-8.74"
   id="path70" />&#10;	<path
   class="st1"
   d="m 211.33,114.93 c 0,0 3.09,0.02 9.82,-0.53"
   id="path71" />&#10;	<path
   class="st1"
   d="m 232.43,110.95 c 0,0 10.89,-0.82 31.46,-5.25"
   id="path72" />&#10;	<path
   class="st3"
   d="m 51.01,126.81 c 0,0 -6.13,0.06 -7.56,0 -1.43,-0.06 -4.58,-0.39 -6.43,-0.96 -1.85,-0.58 -3.68,-1.08 -5.31,-1.68 -1.63,-0.6 -4.66,-1.3 -7.76,-3.75 0,0 -0.03,-0.38 0.53,-0.08 0.56,0.3 1.22,0.73 1.69,0.88 0.47,0.15 1.22,0.53 3.19,0.62 1.97,0.09 7.31,0.22 7.31,0.22 0,0 0.09,0.19 0.28,0.46 0.19,0.27 0.66,0.47 0.66,0.47 5.37,2.06 10.05,3.3 10.85,3.53 0.8,0.23 2.12,0.29 2.12,0.29 0,0 6.82,0 10.96,0 4.15,0 16.81,-0.09 19.75,-0.09 2.94,0 5.35,-0.03 7.67,-0.24 2.33,-0.21 5.05,-0.69 6.17,-0.78"
   id="path73" />&#10;	<line
   class="st4"
   x1="36.630001"
   y1="122.82"
   x2="27.73"
   y2="122.33"
   id="line73" />&#10;	<path
   class="st3"
   d="m 36.67,122.06 c 0,0 0.93,-0.65 0.08,-2.12 -0.84,-1.46 -5.24,-7.92 -6.8,-10.1 -1.56,-2.18 -2.1,-2.97 -2.89,-3.74 -0.79,-0.77 -1.98,-1.65 -3.12,-2.48 -1.14,-0.83 -4.1,-2.74 -4.71,-3.14 -0.6,-0.39 -1.52,-1.26 -1.93,-2.12 C 16.89,97.5 11.5,87.64 11.5,68.42"
   id="path74" />&#10;	<path
   class="st3"
   d="m 21.51,101.98 c 0,0 5.51,10.1 10.88,16.94 0,0 1.28,1.48 2.2,1.78 0.92,0.3 1.87,0.59 2.5,0.67"
   id="path75" />&#10;	<path
   class="st1"
   d="m 24.52,104.05 3.98,6.83 c 0,0 0.41,0.69 1.33,0.9 0.92,0.21 1.64,0.23 1.64,0.23"
   id="path76" />&#10;	<path
   class="st1"
   d="m 32.31,113.23 -1.55,0.37 c 0,0 -0.47,0.17 0,0.83 0.47,0.66 1.71,2.58 4.28,5.58 0,0 0.81,0.79 2,0.64"
   id="path77" />&#10;	<path
   class="st3"
   d="m 32.38,118.91 c 0,0 -2.14,0 -5.41,-0.71 0,0 -0.99,0 -3.03,-1.99 -2.04,-1.99 -5.16,-4.51 -13.23,-14.23 0,0 -1.84,-2.23 -2.82,-6.73 C 6.91,90.75 5.05,84.2 5.05,68.4"
   id="path78" />&#10;	<path
   class="st1"
   d="m 18.37,100.59 c 0,0 3.01,6.53 12.77,17.83"
   id="path79" />&#10;	<path
   class="st3"
   d="m 9.11,99.09 c 0,0 -0.23,1.8 1.12,4.2 0,0 3.3,5.63 6.08,9.31 2.78,3.68 4.61,6.08 7.63,7.81"
   id="path80" />&#10;	<path
   class="st1"
   d="m 28,105.92 c 0,0 17.6,4.29 27.36,5.56 9.76,1.27 20.13,2.41 32.74,3.38"
   id="path81" />&#10;	<path
   class="st1"
   d="m 38.54,119.61 c 0,0 12.01,3.59 25.76,3.21 13.75,-0.38 24.33,-2.47 35.59,-2.14"
   id="path82" />&#10;	<path
   class="st4"
   d="m 9.26,100.82 c 0,0 4.8,6.84 13.5,15.2 0.5,0.48 1.02,0.97 1.55,1.47 0,0 0.43,0.48 2.35,0.71"
   id="path83" />&#10;	<path
   class="st4"
   d="m 22.76,116.02 c 0,0 0.7,2.33 1.91,4.4"
   id="path84" />&#10;	<path
   class="st4"
   d="m 24.81,117.88 c 0,0 2.47,2.48 3.69,3.49"
   id="path85" />&#10;	<path
   class="st4"
   d="m 28.74,121.37 c 0,0 3.02,0.09 5.58,-0.4"
   id="path86" />&#10;	<line
   class="st4"
   x1="23.379999"
   y1="117.06"
   x2="25.559999"
   y2="120.66"
   id="line86" />&#10;	<line
   class="st4"
   x1="25.84"
   y1="120.66"
   x2="26.389999"
   y2="120.58"
   id="line87" />&#10;	<line
   class="st4"
   x1="26.559999"
   y1="119.78"
   x2="26.610001"
   y2="120.42"
   id="line88" />&#10;	<line
   class="st4"
   x1="26.66"
   y1="120.66"
   x2="28.17"
   y2="121.32"
   id="line89" />&#10;	<path
   class="st1"
   d="m 44.16,125.26 -0.92,0.07 c 0,0 -0.54,0.09 0.21,0.34 0.75,0.25 2.18,0.73 3.88,1.16"
   id="path89" />&#10;	<path
   class="st1"
   d="m 265.8,119.25 c 0,0 7.67,0.37 12.18,-1.73 4.51,-2.1 8.3,-6.53 9.46,-8.26 1.16,-1.73 3.94,-7.02 5.11,-11.19 1.17,-4.17 3.99,-16.67 3.99,-29.66"
   id="path90" />&#10;	<path
   class="st3"
   d="m 293.75,106.99 c 0,0 2.77,-4.4 3.74,-9.71 0.97,-5.31 2.97,-15.28 2.97,-28.87"
   id="path91" />&#10;	<path
   class="st3"
   d="m 98.47,12.1 -0.06,-1 c 0,0 0.06,-0.63 -0.86,-0.63 -0.91,0 -0.91,0 -0.91,0 0,0 -0.54,0.06 -1.08,0.43 -0.55,0.37 -1.09,0.92 -1.92,0.86 -0.83,-0.06 -6.57,-0.66 -7.89,-0.51 0,0 -0.41,0.1 0.05,0.18 0,0 6.82,0.48 7.76,0.53 0.93,0.05 3.3,0.19 4.91,0.14 z"
   id="path92" />&#10;	<path
   class="st1"
   d="m 95.44,12.19 c -0.08,0.52 -1.49,0.87 -7.01,0.53 -3.45,-0.21 -6.21,-0.86 -6.17,-1.4 0.04,-0.54 2.86,-0.76 6.3,-0.56 2.77,0.16 4.75,0.45 5.86,0.77"
   id="path93" />&#10;	<path
   class="st1"
   d="M 104.33,19.94"
   id="path94" />&#10;	<path
   class="st3"
   d="m 98.47,12.1 c 0.72,1.08 5.85,7.84 5.85,7.84 -4.72,0.9 -8.25,3.85 -8.25,3.85 0,0 -14.8,12.69 -14.8,44.71"
   id="path95" />&#10;	<path
   class="st1"
   d="m 95.83,23.9 c 0,0 -8.35,0.11 -11.24,0.57 -2.9,0.46 -18.41,3.03 -30.42,6.12 -12,3.09 -22.47,6.4 -27.1,8 -4.63,1.6 -9.46,3.12 -10.95,3.66"
   id="path96" />&#10;	<path
   class="st1"
   d="M 35.19,21.36"
   id="path97" />&#10;	<path
   class="st3"
   d="m 121.32,5.42 c 0,0 -1.94,1.29 -2.93,2.29 -2.45,2.48 -4.77,5.99 -4.77,5.99 -0.93,1.39 -0.2,2.2 -0.2,2.2 0.43,0.7 2.19,0.65 2.19,0.65 4.18,-0.04 5.99,-0.29 6.41,-0.35 0.41,-0.06 1.2,-1.21 1.2,-1.21 2.01,-2.99 5.13,-8.28 5.37,-8.76 0.24,-0.49 -0.01,-0.7 -0.16,-0.84 -0.14,-0.14 -0.44,-0.07 -0.44,-0.07 L 127.93,5.1 c 0,0 -1,-0.36 -2.9,-0.36 -1.35,0 -2.51,0.25 -3.45,0.58 -0.39,0.13 -0.73,0.28 -1.05,0.44 -1.24,0.61 -1.89,1.1 -1.89,1.1 -2.79,1.98 -6.03,6.85 -6.03,6.85 0,0 -0.74,1.03 -0.74,1.77 0,0.66 1.14,1.17 1.14,1.17 0,0 0.8,0.49 2.97,0.6 3.1,0.16 3.83,-0.82 3.83,-0.82"
   id="path98" />&#10;	<path
   class="st1"
   d="m 122,16.2 c 0,0 -0.03,-0.36 0.57,-1.3 0.6,-0.94 2.95,-4.7 5.59,-8.65 0,0 0.31,-0.47 0.52,-0.36"
   id="path99" />&#10;	<path
   class="st1"
   d="m 127.88,5.41 c 0,0 -3.99,5.99 -5.83,9.15"
   id="path100" />&#10;	<polyline
   class="st3"
   points="98.63,12.11 99.28,11.92 113.99,11.67  "
   id="polyline100" />&#10;	<path
   class="st3"
   d="m 125.44,11.59 c 0,0 27.86,0.08 38.15,0.08 10.29,0 34.83,0.3 37.43,0.19 2.59,-0.12 4.38,-0.42 6.56,-0.84 2.17,-0.42 3.7,-0.72 5.72,-0.76 2.02,-0.04 26.51,-0.13 31.25,-0.13 4.75,0 12.58,0.34 15.32,0.63 2.74,0.29 3.92,0.38 5.45,0.95 1.53,0.57 10.67,3.88 13.34,5.3 2.67,1.41 7.04,4.51 9.49,6.98 2.48,2.49 3.39,3.35 4.31,5.18 0.92,1.83 2.85,8.43 4,14.69 1.03,5.6 2.21,14.21 2.21,24.6"
   id="path101" />&#10;	<path
   class="st3"
   d="m 292.29,28.82 c 0,0 4.63,2.29 6.12,10.18 1.49,7.89 3.26,15.97 3.26,29.46"
   id="path102" />&#10;	<path
   class="st3"
   d="m 245.24,10.1 c 0,0 3.16,1.9 6.86,3.05 3.7,1.15 12.58,3.77 17.11,5.87 4.53,2.09 9.26,4.69 11.82,7.43 2.55,2.75 4.34,4.88 5.64,7.59 1.3,2.71 6.75,12.69 6.75,34.42"
   id="path103" />&#10;	<path
   class="st3"
   d="m 164.22,11.67 c 0,0 0.34,0.17 0.66,0.69 0.31,0.51 4.09,7.12 4.09,7.12 l -0.08,1.14"
   id="path104" />&#10;	<path
   class="st1"
   d="m 106.9,19.69 c 2.7,-0.23 7.07,-0.59 9.81,-0.66 4.19,-0.12 36.06,-0.46 51.95,0.53"
   id="path105" />&#10;	<path
   class="st3"
   d="m 104.52,19.9 c 0,0 0.96,-0.09 2.39,-0.22"
   id="path106" />&#10;	<path
   class="st1"
   d="m 105.91,19.84 c 0,0 27.5,6.23 31.1,6.98 3.6,0.74 6.29,1.37 9.38,1.83 9.19,1.36 27.9,1.54 27.9,1.54 22.01,0.69 38.51,0.04 38.51,0.04 0,0 19.63,-0.3 19.63,-2.06 0,-1.37 -7.24,-2.63 -10.71,-3.2 -3.47,-0.57 -11.28,-1.87 -22.64,-3.12 -11.36,-1.26 -29.92,-2.33 -29.92,-2.33"
   id="path107" />&#10;	<path
   class="st1"
   d="M 174.38,29.47"
   id="path108" />&#10;	<path
   class="st3"
   d="m 110.88,20.53 c 0,0 26.57,-1.02 53.4,0.13 1.52,0.07 3.05,0.14 4.57,0.22 0,0 23.56,1.37 35.33,2.92 0,0 25.46,2.67 25.46,4.42 0,1.22 -22.91,1.41 -22.91,1.41 0,0 -14.86,-0.15 -32.09,-0.15 -4.42,0 -20.47,-0.72 -24.32,-1.07 -3.85,-0.34 -11.32,-1.75 -14.79,-2.52 -3.46,-0.77 -24.65,-5.36 -24.65,-5.36 l -3.98,-0.84"
   id="path109" />&#10;	<path
   class="st3"
   d="m 164.36,20.85 c 0,0 3.89,3.09 7.55,8.42"
   id="path110" />&#10;	<path
   class="st3"
   d="m 174.11,21.42 c 0,0 2.71,5.03 3.66,7.93"
   id="path111" />&#10;	<path
   class="st1"
   d="m 165.16,20.93 c 0,0 4.38,3.51 7.47,8.31"
   id="path112" />&#10;	<path
   class="st1"
   d="m 173.43,21.35 c 0,0 2.71,4.88 3.66,7.93"
   id="path113" />&#10;	<path
   class="st1"
   d="m 136.84,32.63 c 0,0 20.2,1.15 34.53,1.68 14.33,0.53 49.24,1.99 54.43,2.29"
   id="path114" />&#10;	<path
   class="st3"
   d="m 148.92,11.95 c 0,0 -0.88,-0.01 -0.88,0.16 0,0.17 0.57,0.26 1.07,0.36 0.5,0.1 3.56,0.44 5.66,0.44 2.1,0 5.32,0.13 5.89,0.12 0.57,-0.02 1.05,-0.1 1.05,-0.33 0,-0.23 -0.63,-0.47 -1.42,-0.51 -0.78,-0.04 -10.65,-0.27 -11.37,-0.24 z"
   id="path115" />&#10;	<path
   class="st3"
   d="m 227.46,10.21 c 0,0 0.8,1.49 1.11,2.37 0.31,0.89 0.57,1.68 0.4,3.17 0,0 0.03,0.86 -1.31,2.51 -1.34,1.66 -4.66,5.41 -5.66,6.46 0,0 -0.49,0.63 -0.52,1.2"
   id="path116" />&#10;	<path
   class="st3"
   d="m 206.3,12.64 c 0,0 -1.43,-0.06 -1.45,0.17 -0.02,0.23 1.35,0.72 3.39,0.72 2.04,0 7.22,-0.02 9.15,-0.12 0,0 1.09,-0.02 1.05,-0.38 0,0 0.02,-0.48 -1.26,-0.48 -1.12,0.01 -10.1,0.11 -10.88,0.09"
   id="path117" />&#10;	<path
   class="st3"
   d="m 101.89,20.92 c 0,0 16.77,3.47 30.87,7.44 0,0 4.84,1.14 3.77,4.19 -1.07,3.05 -4.73,14.63 -4.73,36.06"
   id="path118" />&#10;	<path
   class="st3"
   d="m 260.44,37.51 c 0,0 5.89,10.64 5.89,31.04"
   id="path119" />&#10;	<path
   class="st1"
   d="M 234.64,68.69 V 55.04 c 0,0 0,-0.45 0.53,-0.3 0.53,0.15 2.56,0.95 2.56,0.95 0,0 0.99,0.57 0.99,1.91 0,1.33 0,11.05 0,11.05"
   id="path120" />&#10;	<path
   class="st1"
   d="m 273.2,32.31 c 0,0 7.79,12.45 7.79,36.38"
   id="path121" />&#10;	<path
   class="st1"
   d="m 285.83,33.81 c 0,0 6.97,12.46 6.97,34.65"
   id="path122" />&#10;	<path
   class="st1"
   d="m 287.09,34.85 c 0,0 2.8,0.29 4.29,0.86 l 1.04,0.74"
   id="path123" />&#10;	<path
   class="st1"
   d="m 296.98,67.57 c 0,0 0.63,0.02 0.63,0.39 0,0.37 0,0.5 0,0.5"
   id="path124" />&#10;	<path
   class="st1"
   d="m 144.07,52.39 c 0,0 33.25,-1.16 78.14,1.12"
   id="path125" />&#10;	<path
   class="st1"
   d="m 17.46,53.51 c 0,0 22.58,-3.2 58.89,-3.77"
   id="path126" />&#10;	<path
   class="st1"
   d="m 173.43,17.36 c 0,0 19.89,-1.25 53,-1.22"
   id="path127" />&#10;	<path
   class="st1"
   d="m 230.55,16.14 c 0,0 24.93,0.1 41,5.21"
   id="path128" />&#10;	<path
   class="st1"
   d="m 227.1,23.02 c 11.58,1.17 29.96,3.62 56.47,8.74"
   id="path129" />&#10;	<path
   class="st1"
   d="m 211.33,21.95 c 0,0 3.09,-0.02 9.82,0.53"
   id="path130" />&#10;	<path
   class="st1"
   d="m 232.43,25.93 c 0,0 10.89,0.82 31.46,5.25"
   id="path131" />&#10;	<path
   class="st3"
   d="m 51.01,10.07 c 0,0 -6.13,-0.06 -7.56,0 -1.43,0.06 -4.58,0.39 -6.43,0.96 -1.85,0.58 -3.68,1.08 -5.31,1.68 -1.63,0.6 -4.66,1.3 -7.76,3.75 0,0 -0.03,0.38 0.53,0.08 0.56,-0.3 1.22,-0.73 1.69,-0.88 0.47,-0.15 1.22,-0.53 3.19,-0.62 1.97,-0.09 7.31,-0.22 7.31,-0.22 0,0 0.09,-0.19 0.28,-0.46 0.19,-0.27 0.66,-0.47 0.66,-0.47 5.37,-2.06 10.05,-3.3 10.85,-3.53 0.8,-0.23 2.12,-0.29 2.12,-0.29 0,0 6.82,0 10.96,0 4.15,0 16.81,0.09 19.75,0.09 2.94,0 5.35,0.03 7.67,0.24 2.33,0.21 5.05,0.69 6.17,0.78"
   id="path132" />&#10;	<line
   class="st4"
   x1="36.630001"
   y1="14.06"
   x2="27.73"
   y2="14.55"
   id="line132" />&#10;	<path
   class="st3"
   d="m 36.67,14.82 c 0,0 0.93,0.65 0.08,2.12 -0.85,1.47 -5.24,7.92 -6.8,10.1 -1.56,2.18 -2.1,2.97 -2.89,3.74 -0.79,0.77 -1.98,1.65 -3.12,2.48 -1.14,0.83 -4.1,2.74 -4.71,3.14 -0.6,0.39 -1.52,1.26 -1.93,2.12 -0.41,0.86 -5.8,10.72 -5.8,29.94"
   id="path133" />&#10;	<path
   class="st3"
   d="m 21.51,34.9 c 0,0 5.51,-10.1 10.88,-16.94 0,0 1.28,-1.48 2.2,-1.78 0.92,-0.3 1.87,-0.59 2.5,-0.67"
   id="path134" />&#10;	<path
   class="st1"
   d="M 24.52,32.83 28.5,26 c 0,0 0.41,-0.69 1.33,-0.9 0.92,-0.21 1.64,-0.23 1.64,-0.23"
   id="path135" />&#10;	<path
   class="st1"
   d="m 32.31,23.65 -1.55,-0.37 c 0,0 -0.47,-0.17 0,-0.83 0.47,-0.66 1.71,-2.58 4.28,-5.58 0,0 0.81,-0.79 2,-0.64"
   id="path136" />&#10;	<path
   class="st3"
   d="m 32.38,17.97 c 0,0 -2.14,0 -5.41,0.71 0,0 -0.99,0 -3.03,1.99 -2.04,1.99 -5.16,4.51 -13.23,14.23 0,0 -1.84,2.23 -2.82,6.73 -0.98,4.5 -2.84,11.05 -2.84,26.85"
   id="path137" />&#10;	<path
   class="st1"
   d="m 18.37,36.29 c 0,0 3.01,-6.53 12.77,-17.83"
   id="path138" />&#10;	<path
   class="st3"
   d="m 9.11,37.79 c 0,0 -0.23,-1.8 1.12,-4.2 0,0 3.3,-5.63 6.08,-9.31 2.78,-3.68 4.61,-6.08 7.63,-7.81"
   id="path139" />&#10;	<path
   class="st1"
   d="m 28,30.96 c 0,0 17.6,-4.29 27.36,-5.56 9.76,-1.27 20.13,-2.41 32.74,-3.38"
   id="path140" />&#10;	<path
   class="st1"
   d="m 38.54,17.27 c 0,0 12.01,-3.59 25.76,-3.21 13.74,0.38 24.33,2.47 35.59,2.14"
   id="path141" />&#10;	<path
   class="st4"
   d="m 9.26,36.06 c 0,0 4.8,-6.84 13.5,-15.2 0.5,-0.48 1.02,-0.97 1.55,-1.47 0,0 0.43,-0.48 2.35,-0.71"
   id="path142" />&#10;	<path
   class="st4"
   d="m 22.76,20.86 c 0,0 0.7,-2.33 1.91,-4.4"
   id="path143" />&#10;	<path
   class="st4"
   d="m 24.81,19 c 0,0 2.47,-2.48 3.69,-3.49"
   id="path144" />&#10;	<path
   class="st4"
   d="m 28.74,15.51 c 0,0 3.02,-0.09 5.58,0.4"
   id="path145" />&#10;	<line
   class="st4"
   x1="23.379999"
   y1="19.82"
   x2="25.559999"
   y2="16.219999"
   id="line145" />&#10;	<line
   class="st4"
   x1="25.84"
   y1="16.219999"
   x2="26.389999"
   y2="16.299999"
   id="line146" />&#10;	<line
   class="st4"
   x1="26.559999"
   y1="17.1"
   x2="26.610001"
   y2="16.459999"
   id="line147" />&#10;	<line
   class="st4"
   x1="26.66"
   y1="16.219999"
   x2="28.17"
   y2="15.56"
   id="line148" />&#10;	<path
   class="st1"
   d="m 44.16,11.62 -0.92,-0.07 c 0,0 -0.54,-0.09 0.21,-0.34 0.75,-0.25 2.18,-0.73 3.88,-1.16"
   id="path148" />&#10;	<path
   class="st1"
   d="m 265.8,17.63 c 0,0 7.67,-0.37 12.18,1.73 4.51,2.1 8.3,6.53 9.46,8.26 1.16,1.73 3.94,7.02 5.11,11.19 1.17,4.17 3.99,16.67 3.99,29.66"
   id="path149" />&#10;	<path
   class="st3"
   d="m 293.75,29.89 c 0,0 2.77,4.4 3.74,9.71 0.97,5.31 2.97,15.28 2.97,28.87"
   id="path150" />&#10;	<path
   class="st1"
   d="m 282.68,117.36 c 0,0 14.29,-11.7 14.29,-48.94"
   id="path151" />&#10;	<path
   class="st1"
   d="m 282.68,19.48 c 0,0 14.29,11.7 14.29,48.94"
   id="path152" />&#10;</g>&#10;</svg>
